<svg width="452" height="354" viewBox="0 0 452 354" fill="none" xmlns="http://www.w3.org/2000/svg">
<g clip-path="url(#clip0_428_70)">
<path opacity="0.7" d="M402.218 69.0811C400.915 66.8927 399.547 64.7316 398.112 62.5978C379.085 34.4078 346.327 15.1303 314.103 6.41479C299.965 2.65635 285.44 0.538729 270.817 0.103837C175.047 -3.17884 136.902 72.3228 105.253 91.748C73.6035 111.173 24.873 144.468 28.1578 214.217C31.4427 283.965 81.7171 349.627 179.104 353.73C276.491 357.834 282.987 313.994 337.359 297.769C373.345 287.035 398.95 250.777 411.432 217.269C428.497 171.591 427.692 112.281 402.218 69.0811Z" fill="#F9F0A6"/>
<path d="M75.4498 221.481C61.7698 234.871 59.4498 255.591 62.3498 273.741C62.4298 274.151 63.0698 274.041 63.0698 273.651C63.0698 269.521 62.9398 265.431 62.9498 261.351C63.0298 261.161 63.0898 260.981 63.1698 260.801C66.7398 258.201 70.0498 255.281 72.0498 251.281C74.3398 246.781 75.2398 241.721 76.9798 237.021C77.1498 236.571 76.6698 236.701 76.3498 236.941C68.0298 243.071 65.3498 249.681 62.9898 258.501C63.0369 253.885 63.5224 249.284 64.4398 244.761C66.2398 236.391 69.7898 228.081 75.8098 221.871C75.8615 221.823 75.8922 221.756 75.895 221.686C75.8978 221.616 75.8726 221.547 75.8248 221.496C75.7771 221.444 75.7108 221.413 75.6404 221.41C75.5701 221.408 75.5015 221.433 75.4498 221.481Z" fill="#A6A6A6"/>
<path d="M78.0498 223.041C80.3998 223.121 81.8798 226.881 83.7098 227.981C83.9025 228.137 84.1259 228.251 84.3657 228.316C84.6054 228.38 84.8559 228.393 85.1011 228.355C85.3463 228.316 85.5806 228.226 85.7889 228.091C85.9971 227.956 86.1746 227.779 86.3098 227.571C88.1298 225.031 85.6298 221.901 83.3098 220.151C84.9898 220.841 86.3798 222.051 88.1898 222.401C88.4211 222.474 88.6653 222.498 88.9064 222.469C89.1474 222.441 89.3797 222.362 89.5878 222.237C89.7959 222.112 89.9751 221.945 90.1133 221.745C90.2516 221.546 90.3458 221.319 90.3898 221.081C91.1798 217.621 86.8498 216.081 83.8698 216.011C85.3098 215.011 89.4498 212.281 87.2498 210.941C85.0498 209.601 80.1698 213.491 78.5898 214.771C76.2598 216.661 73.4898 219.481 73.3798 222.431C73.1998 225.881 76.2098 223.761 78.0498 223.041Z" fill="#DBDBDB"/>
<path d="M77.3401 223.621C80.3401 222.251 86.1301 224.221 86.6201 223.081C87.6201 220.761 83.0001 219.171 80.5001 218.861C82.8001 218.241 87.2001 217.251 87.0701 215.041C86.9001 212.331 80.3201 214.661 76.9801 217.211C72.7901 220.431 72.8101 223.541 73.5101 224.161C74.4601 225.011 76.8401 223.841 77.3401 223.621Z" fill="#EBEBEB"/>
<path d="M44.2898 220.151C58.4698 233.011 61.5598 253.631 59.3598 271.881C59.3598 272.291 58.6598 272.211 58.6498 271.821C58.4898 267.691 58.4598 263.591 58.2898 259.521L58.0598 258.971C54.3998 256.521 50.9998 253.711 48.8198 249.771C46.3598 245.371 45.2698 240.341 43.3498 235.711C43.1698 235.271 43.6498 235.381 43.9698 235.601C52.5198 241.421 55.4298 247.921 58.1498 256.651C57.9137 252.038 57.2441 247.458 56.1498 242.971C54.0298 234.671 50.1498 226.511 43.9098 220.531C43.7098 220.281 44.0498 219.921 44.2898 220.151Z" fill="#A6A6A6"/>
<path d="M41.7801 221.811C39.4301 221.981 38.1001 225.811 36.3101 226.961C36.1243 227.125 35.9057 227.249 35.6689 227.323C35.432 227.397 35.1821 227.42 34.9356 227.391C34.6891 227.361 34.4516 227.28 34.2387 227.153C34.0257 227.025 33.8422 226.854 33.7001 226.651C31.7901 224.181 34.1601 220.961 36.4401 219.121C34.7901 219.881 33.4401 221.121 31.6501 221.551C31.4194 221.635 31.1732 221.668 30.9286 221.647C30.6839 221.627 30.4465 221.554 30.2326 221.434C30.0188 221.313 29.8337 221.147 29.69 220.948C29.5463 220.749 29.4474 220.521 29.4001 220.281C28.4701 216.851 32.7501 215.151 35.7201 214.961C34.2401 214.021 30.0001 211.451 32.1501 210.031C34.3001 208.611 39.3201 212.311 40.9501 213.531C43.3501 215.331 46.2301 218.041 46.4401 220.991C46.7101 224.471 43.6201 222.461 41.7801 221.811Z" fill="#DBDBDB"/>
<path d="M42.4802 222.361C39.4302 221.111 33.7202 223.301 33.1902 222.181C32.1102 219.901 36.6602 218.181 39.1902 217.731C36.8702 217.201 32.4402 216.371 32.4902 214.161C32.5502 211.451 39.2202 213.521 42.6502 215.951C46.9602 219.011 47.0502 222.111 46.3802 222.761C45.4202 223.651 42.9902 222.571 42.4802 222.361Z" fill="#EBEBEB"/>
<path d="M58.7898 254.121C59.7516 261.001 61.2257 267.8 63.1998 274.461C63.2285 274.591 63.3073 274.705 63.4191 274.778C63.5309 274.851 63.6669 274.877 63.7978 274.851C63.9288 274.825 64.0442 274.748 64.1194 274.638C64.1945 274.527 64.2234 274.392 64.1998 274.261C63.2698 268.001 61.5698 261.841 60.6398 255.581C59.6178 249.238 59.2526 242.808 59.5498 236.391C60.1398 225.831 63.0098 214.591 69.8998 206.331C70.0598 206.131 69.7298 205.861 69.5798 206.041C55.7798 222.131 57.9798 241.851 57.9898 243.621C55.9898 236.961 53.9898 229.321 46.6298 222.541C46.3098 222.251 46.0598 222.391 46.1198 222.891C47.4298 235.281 50.8598 241.691 58.0498 248.281C58.2298 250.281 58.4798 252.201 58.7898 254.121Z" fill="#A6A6A6"/>
<path d="M70.0499 208.181C72.5299 207.081 75.9599 210.241 78.4099 210.451C78.6886 210.523 78.9795 210.534 79.2629 210.483C79.5462 210.432 79.8153 210.321 80.0517 210.157C80.2881 209.992 80.4863 209.779 80.6326 209.531C80.779 209.283 80.8702 209.007 80.8999 208.721C81.5099 205.171 77.3499 203.181 74.0299 202.551C76.1199 202.421 78.1699 202.971 80.2199 202.421C80.4954 202.377 80.7586 202.275 80.9927 202.124C81.2268 201.972 81.4265 201.773 81.5791 201.539C81.7317 201.306 81.8337 201.043 81.8786 200.768C81.9235 200.492 81.9103 200.21 81.8399 199.941C80.9299 195.941 75.6499 196.541 72.5299 197.941C73.5299 196.171 76.4399 191.261 73.5299 190.941C70.6199 190.621 67.4699 197.151 66.4799 199.281C65.0099 202.411 63.5499 206.741 64.9299 209.851C66.4499 213.561 68.4999 209.841 70.0499 208.181Z" fill="#DBDBDB"/>
<path d="M69.5998 209.121C72.0398 206.191 79.0298 205.321 78.9598 203.891C78.8298 200.991 73.2398 201.661 70.4998 202.601C72.5598 200.801 76.6298 197.551 75.3798 195.321C73.8398 192.601 68.1798 198.321 66.0098 202.661C63.2798 208.111 64.8698 211.321 65.8998 211.611C67.3198 212.021 69.1998 209.611 69.5998 209.121Z" fill="#EBEBEB"/>
<path d="M49.7099 257.841L43.6299 304.341H80.6299C79.8699 300.221 72.9799 257.791 72.9799 257.791L49.7099 257.841Z" fill="#DBDBDB"/>
<path d="M410.85 121.911H437.33V110.721H410.85V121.911Z" fill="#EBEBEB"/>
<path d="M425.62 107.801H452.1V96.6106H425.62V107.801Z" fill="#EBEBEB"/>
<path d="M396.07 107.801H422.55V96.6106H396.07V107.801Z" fill="#EBEBEB"/>
<path d="M14.77 266.231H41.25V255.041H14.77V266.231Z" fill="#EBEBEB"/>
<path d="M-1.90735e-05 252.121H26.48V240.931H-1.90735e-05V252.121Z" fill="#EBEBEB"/>
<path d="M425.62 266.221H452.1V255.031H425.62V266.221Z" fill="#EBEBEB"/>
<path d="M114.96 17.5406H88.48V28.7306H114.96V17.5406Z" fill="#EBEBEB"/>
<path d="M100.18 31.6506H73.7002V42.8406H100.18V31.6506Z" fill="#EBEBEB"/>
<path d="M34 304.301L82.01 304.061L130.02 303.971L226.05 303.801L322.07 303.971L370.09 304.061L418.1 304.301L370.09 304.551L322.07 304.631L226.05 304.801L130.02 304.631L82.01 304.541L34 304.301Z" fill="#263238"/>
<path d="M140.11 34H134.934V18.7273H140.214C141.73 18.7273 143.033 19.033 144.122 19.6445C145.215 20.2511 146.056 21.1236 146.642 22.2621C147.229 23.4006 147.522 24.7628 147.522 26.3487C147.522 27.9396 147.226 29.3068 146.635 30.4503C146.048 31.5937 145.2 32.4712 144.092 33.0827C142.988 33.6942 141.661 34 140.11 34ZM137.701 31.6062H139.975C141.039 31.6062 141.927 31.4123 142.638 31.0245C143.349 30.6317 143.883 30.0476 144.241 29.272C144.599 28.4915 144.778 27.517 144.778 26.3487C144.778 25.1804 144.599 24.2109 144.241 23.4403C143.883 22.6648 143.354 22.0856 142.653 21.7028C141.956 21.315 141.091 21.1211 140.057 21.1211H137.701V31.6062ZM151.292 34H148.339L153.716 18.7273H157.131L162.515 34H159.562L155.483 21.8594H155.364L151.292 34ZM151.389 28.0117H159.443V30.234H151.389V28.0117ZM162.01 21.0465V18.7273H174.195V21.0465H169.475V34H166.731V21.0465H162.01ZM176.66 34H173.707L179.084 18.7273H182.499L187.883 34H184.93L180.851 21.8594H180.732L176.66 34ZM176.757 28.0117H184.811V30.234H176.757V28.0117ZM207.655 18.7273V34H205.194L197.998 23.5969H197.871V34H195.104V18.7273H197.58L204.769 29.1378H204.903V18.7273H207.655ZM224.316 26.3636C224.316 28.0092 224.008 29.4187 223.392 30.592C222.78 31.7603 221.945 32.6552 220.886 33.2766C219.832 33.8981 218.636 34.2088 217.299 34.2088C215.962 34.2088 214.764 33.8981 213.705 33.2766C212.651 32.6502 211.815 31.7528 211.199 30.5845C210.587 29.4112 210.282 28.0043 210.282 26.3636C210.282 24.718 210.587 23.3111 211.199 22.1428C211.815 20.9695 212.651 20.0721 213.705 19.4506C214.764 18.8292 215.962 18.5185 217.299 18.5185C218.636 18.5185 219.832 18.8292 220.886 19.4506C221.945 20.0721 222.78 20.9695 223.392 22.1428C224.008 23.3111 224.316 24.718 224.316 26.3636ZM221.535 26.3636C221.535 25.2053 221.353 24.2283 220.991 23.4329C220.633 22.6325 220.135 22.0284 219.499 21.6207C218.863 21.2081 218.129 21.0018 217.299 21.0018C216.469 21.0018 215.736 21.2081 215.099 21.6207C214.463 22.0284 213.963 22.6325 213.6 23.4329C213.242 24.2283 213.063 25.2053 213.063 26.3636C213.063 27.522 213.242 28.5014 213.6 29.3018C213.963 30.0973 214.463 30.7013 215.099 31.114C215.736 31.5217 216.469 31.7255 217.299 31.7255C218.129 31.7255 218.863 31.5217 219.499 31.114C220.135 30.7013 220.633 30.0973 220.991 29.3018C221.353 28.5014 221.535 27.522 221.535 26.3636ZM225.584 21.0465V18.7273H237.77V21.0465H233.049V34H230.305V21.0465H225.584ZM245.328 34V18.7273H255.112V21.0465H248.094V25.1928H254.441V27.5121H248.094V34H245.328ZM271.279 26.3636C271.279 28.0092 270.971 29.4187 270.355 30.592C269.743 31.7603 268.908 32.6552 267.849 33.2766C266.795 33.8981 265.599 34.2088 264.262 34.2088C262.925 34.2088 261.726 33.8981 260.668 33.2766C259.614 32.6502 258.778 31.7528 258.162 30.5845C257.55 29.4112 257.245 28.0043 257.245 26.3636C257.245 24.718 257.55 23.3111 258.162 22.1428C258.778 20.9695 259.614 20.0721 260.668 19.4506C261.726 18.8292 262.925 18.5185 264.262 18.5185C265.599 18.5185 266.795 18.8292 267.849 19.4506C268.908 20.0721 269.743 20.9695 270.355 22.1428C270.971 23.3111 271.279 24.718 271.279 26.3636ZM268.498 26.3636C268.498 25.2053 268.316 24.2283 267.953 23.4329C267.595 22.6325 267.098 22.0284 266.462 21.6207C265.826 21.2081 265.092 21.0018 264.262 21.0018C263.432 21.0018 262.698 21.2081 262.062 21.6207C261.426 22.0284 260.926 22.6325 260.563 23.4329C260.205 24.2283 260.026 25.2053 260.026 26.3636C260.026 27.522 260.205 28.5014 260.563 29.3018C260.926 30.0973 261.426 30.7013 262.062 31.114C262.698 31.5217 263.432 31.7255 264.262 31.7255C265.092 31.7255 265.826 31.5217 266.462 31.114C267.098 30.7013 267.595 30.0973 267.953 29.3018C268.316 28.5014 268.498 27.522 268.498 26.3636ZM283.523 18.7273H286.289V28.7053C286.289 29.799 286.031 30.761 285.514 31.5913C285.002 32.4215 284.281 33.0703 283.351 33.5376C282.421 34 281.335 34.2312 280.092 34.2312C278.844 34.2312 277.756 34 276.826 33.5376C275.896 33.0703 275.175 32.4215 274.663 31.5913C274.151 30.761 273.895 29.799 273.895 28.7053V18.7273H276.662V28.4741C276.662 29.1104 276.801 29.6772 277.079 30.1744C277.363 30.6715 277.76 31.0618 278.273 31.3452C278.785 31.6236 279.391 31.7628 280.092 31.7628C280.793 31.7628 281.4 31.6236 281.912 31.3452C282.429 31.0618 282.827 30.6715 283.105 30.1744C283.383 29.6772 283.523 29.1104 283.523 28.4741V18.7273ZM301.847 18.7273V34H299.386L292.19 23.5969H292.063V34H289.296V18.7273H291.772L298.961 29.1378H299.095V18.7273H301.847ZM310.037 34H304.862V18.7273H310.142C311.658 18.7273 312.961 19.033 314.049 19.6445C315.143 20.2511 315.983 21.1236 316.57 22.2621C317.157 23.4006 317.45 24.7628 317.45 26.3487C317.45 27.9396 317.154 29.3068 316.562 30.4503C315.976 31.5937 315.128 32.4712 314.02 33.0827C312.916 33.6942 311.588 34 310.037 34ZM307.629 31.6062H309.903C310.967 31.6062 311.854 31.4123 312.565 31.0245C313.276 30.6317 313.811 30.0476 314.169 29.272C314.527 28.4915 314.706 27.517 314.706 26.3487C314.706 25.1804 314.527 24.2109 314.169 23.4403C313.811 22.6648 313.281 22.0856 312.58 21.7028C311.884 21.315 311.019 21.1211 309.985 21.1211H307.629V31.6062Z" fill="black"/>
<path d="M256.32 175.031C256.285 175.259 256.331 175.493 256.45 175.692C256.568 175.891 256.752 176.042 256.97 176.121C258.02 176.281 259.3 176.451 260.72 176.651C264.95 167.471 269.27 160.241 268.05 163.101C266.186 167.594 264.964 172.327 264.42 177.161C266.07 177.381 269.92 177.851 271.84 178.081C276.26 161.701 281.13 149.661 280.56 153.441C278.24 168.691 278.65 173.671 279.18 179.001C297.11 181.181 320.66 183.761 337.73 185.231C340.52 176.231 343.13 166.391 343.37 167.111C345.24 172.461 345.2 180.021 344.73 185.821C350.17 186.251 354.53 186.481 357.2 186.481C357.2 186.481 359.2 178.861 359.56 176.341C360.63 169.893 360.57 163.308 359.38 156.881C358.15 150.321 355.53 144.421 353.08 138.391C353.072 138.353 353.062 138.316 353.05 138.281C351.425 134.33 350.257 130.207 349.57 125.991C349.563 125.958 349.563 125.924 349.57 125.891C349.113 122.816 348.915 119.708 348.98 116.601C349.2 105.221 344.1 94.9905 334.41 91.2905C317.86 74.3805 295.13 82.1405 288.71 96.4405C286.2 102.851 283.71 111.221 281.54 117.671C281.546 117.681 281.549 117.693 281.549 117.706C281.549 117.718 281.546 117.73 281.54 117.741C280.721 120.271 279.749 122.748 278.63 125.161C272.68 136.681 261.22 142.621 256.32 175.031Z" fill="#263238"/>
<path d="M338.4 94.6506C344.61 98.7606 348.15 104.371 348.4 112.711C348.56 117.571 348.4 122.301 349.77 126.971C351.14 131.791 353.62 135.851 356.19 139.901C360.26 146.341 362.94 152.661 362.93 160.821C362.92 168.981 361.69 178.821 358.4 186.311C358.4 186.361 358.32 186.311 358.34 186.311C361.14 178.661 362.16 167.881 361.59 159.621C360.96 150.541 356.72 144.561 352.46 137.391C349.027 131.699 347.129 125.215 346.95 118.571C346.83 114.451 347.27 110.201 346.07 106.241C344.65 101.521 341.25 98.3306 337.85 95.4806C337.4 95.0706 337.93 94.3406 338.4 94.6506Z" fill="#263238"/>
<path d="M266.41 137.091C271.59 131.001 276.88 125.871 280.3 118.091C283.41 111.001 285.5 103.431 288.65 96.3606C288.65 96.2406 288.86 96.3006 288.81 96.4306C283.81 109.031 281.89 121.971 273.15 132.241C268.39 137.821 263.68 142.971 260.26 149.821C256.763 157.045 254.575 164.832 253.8 172.821C253.8 173.101 253.43 173.061 253.43 172.821C253.425 159.756 258.02 147.106 266.41 137.091Z" fill="#263238"/>
<path d="M216.05 292.281C216.05 292.281 264.32 305.281 272.3 303.881C280.28 302.481 307.22 266.221 313.2 253.071C319.18 239.921 329.11 174.501 327.2 167.301C325.29 160.101 315.3 160.001 306.87 178.561C298.44 197.121 278.51 237.921 274.96 241.281C271.41 244.641 212.16 288.801 216.05 292.281Z" fill="#DF8C7E"/>
<path d="M268.11 299.581C260.71 295.711 251.7 286.321 245.56 285.341C244.058 285.047 242.501 285.244 241.12 285.903C239.739 286.562 238.606 287.648 237.89 289.001C237.89 289.001 235.07 282.731 229.35 282.761C226.42 282.761 223.86 287.481 223.86 287.481C223.86 287.481 221.37 282.551 216.3 282.891C212.25 283.161 210.3 287.841 210.3 287.841C210.3 287.841 205.72 284.221 201.68 285.841C193.5 289.071 192.14 323.841 204.74 329.721C210.61 332.461 210.48 323.951 210.48 323.951C210.48 323.951 213.62 336.151 220.78 336.611C227.94 337.071 227.11 326.031 227.11 326.031C227.11 326.031 230.26 337.821 237.73 337.551C245.51 337.281 242.79 326.371 242.79 326.371C242.79 326.371 247.73 334.311 253.4 332.791C262.77 330.291 252.7 311.471 254.82 303.901H266.59L268.11 299.581Z" fill="#DF8C7E"/>
<path d="M257.43 292.181C264.76 295.241 273.12 283.671 280.66 286.361C290.44 289.851 281.4 301.921 266.58 303.881H254.81L257.43 292.181Z" fill="#DF8C7E"/>
<path d="M209.87 288.531C209.87 288.507 209.861 288.484 209.844 288.467C209.827 288.45 209.804 288.441 209.78 288.441C209.756 288.441 209.733 288.45 209.716 288.467C209.7 288.484 209.69 288.507 209.69 288.531C206.46 299.861 206.37 313.301 210.42 324.441C210.55 324.801 211.21 324.751 211.14 324.321C209.16 312.001 208.38 300.941 209.87 288.531Z" fill="#263238"/>
<path d="M223.79 287.281C223.79 287.141 223.58 287.111 223.54 287.281C220.27 298.981 220.54 314.111 226.77 326.411C226.98 326.831 227.6 326.991 227.39 326.491C223.9 318.011 222.39 298.471 223.79 287.281Z" fill="#263238"/>
<path d="M243.51 327.101C238.04 315.101 236.97 302.531 237.73 289.471C237.73 289.301 237.5 289.301 237.45 289.471C235.34 295.761 235.73 304.131 236.58 310.621C237.245 316.644 239.476 322.387 243.05 327.281C243.23 327.491 243.63 327.361 243.51 327.101Z" fill="#263238"/>
<path d="M281.24 285.441C276.44 283.841 271.51 287.681 267.47 289.831C266.177 290.6 264.814 291.246 263.4 291.761C260.2 292.761 257.83 292.121 256.4 291.231C254.16 289.801 247.17 282.821 242.12 285.141C240.378 285.956 238.886 287.223 237.8 288.811C236.26 286.011 234.29 282.961 230.88 282.401C230.129 282.273 229.359 282.306 228.621 282.497C227.883 282.689 227.195 283.034 226.6 283.511C225.964 284.001 225.399 284.576 224.92 285.221C224.445 285.799 224.055 286.442 223.76 287.131C223.759 287.107 223.759 287.084 223.76 287.061L223.65 286.851L223.44 286.421C223.155 285.844 222.749 285.336 222.25 284.931C222.155 284.834 222.041 284.757 221.916 284.705C221.79 284.654 221.656 284.628 221.52 284.631C221.499 284.631 221.478 284.639 221.463 284.654C221.448 284.669 221.44 284.689 221.44 284.711C221.44 284.732 221.448 284.752 221.463 284.767C221.478 284.782 221.499 284.791 221.52 284.791C221.754 284.902 221.944 285.088 222.06 285.321C222.22 285.561 222.37 285.811 222.54 286.041C222.71 286.271 222.87 286.511 223.04 286.741L223.29 287.111L223.4 287.301C223.448 287.362 223.502 287.419 223.56 287.471C223.574 287.489 223.592 287.504 223.613 287.515C223.634 287.525 223.657 287.531 223.68 287.531C223.703 287.531 223.726 287.525 223.747 287.515C223.768 287.504 223.786 287.489 223.8 287.471C224.314 287.013 224.78 286.504 225.19 285.951C225.694 285.365 226.253 284.829 226.86 284.351C227.436 283.905 228.1 283.585 228.808 283.413C229.517 283.241 230.253 283.219 230.97 283.351C234.03 283.951 235.97 286.671 237.6 289.101C237.6 289.101 237.6 289.101 237.65 289.101C237.6 289.181 237.71 289.251 237.77 289.191C239.45 287.721 241.05 286.071 243.37 285.731C245.87 285.361 248.24 286.561 250.31 287.821C251.347 288.43 252.348 289.098 253.31 289.821C254.16 290.481 254.97 291.221 255.88 291.821C259.77 294.271 264.03 292.371 265.09 291.921C267.18 290.979 269.208 289.903 271.16 288.701C273.122 287.385 275.335 286.489 277.66 286.071C278.727 285.913 279.817 286.029 280.828 286.407C281.839 286.784 282.737 287.412 283.44 288.231C284.17 289.171 285.1 290.931 283.19 294.941C283.19 294.941 283.19 295.021 283.25 294.991C284.25 293.951 287.43 287.511 281.24 285.441Z" fill="#263238"/>
<path d="M323.41 228.061L277.86 220.781C277.86 220.781 299.62 177.691 312.69 165.191C325.59 152.851 331.87 165.491 329.97 184.551C327.87 205.681 323.41 228.061 323.41 228.061Z" fill="#37474F"/>
<path d="M321.93 219.581C320.65 219.281 319.34 219.091 318.06 218.801C316.78 218.511 315.55 218.331 314.29 218.141C311.72 217.741 309.14 217.381 306.57 217.031C301.49 216.331 296.41 215.561 291.31 215.031C288.41 214.711 285.53 214.271 282.62 214.031C282.53 214.031 282.52 214.171 282.62 214.191C287.67 215.371 292.81 216.191 297.93 217.081C303.05 217.971 308.09 218.691 313.19 219.241C314.62 219.401 316.06 219.581 317.49 219.651C318.92 219.721 320.44 219.861 321.91 219.881C321.95 219.883 321.989 219.87 322.019 219.844C322.049 219.817 322.067 219.78 322.07 219.741C322.073 219.701 322.06 219.662 322.033 219.632C322.007 219.602 321.97 219.583 321.93 219.581Z" fill="#263238"/>
<path d="M298.05 304.281H418.68C418.68 304.281 368.54 179.841 343.05 161.661C335.4 156.201 323.21 155.591 314.99 166.551C308.25 175.551 289.54 211.301 288.69 224.161C287.84 237.021 297.93 249.731 297.93 249.731L298.05 304.281Z" fill="#455A64"/>
<path d="M337.99 219.961C338.3 219.881 338.6 219.841 338.9 219.781C339.165 219.721 339.439 219.721 339.704 219.781C339.968 219.842 340.215 219.961 340.428 220.13C340.64 220.299 340.811 220.513 340.929 220.758C341.047 221.002 341.109 221.269 341.11 221.541C341.102 221.782 341.157 222.021 341.27 222.235C341.382 222.448 341.547 222.63 341.75 222.761C341.977 222.903 342.233 222.992 342.5 223.021C342.806 223.065 343.11 223.125 343.41 223.201C343.11 223.281 342.81 223.321 342.5 223.381C342.165 223.447 341.818 223.416 341.5 223.291C341.162 223.146 340.874 222.905 340.673 222.597C340.472 222.289 340.366 221.928 340.37 221.561C340.364 221.32 340.298 221.085 340.177 220.877C340.057 220.669 339.886 220.495 339.68 220.371C339.442 220.241 339.18 220.163 338.91 220.141C338.6 220.081 338.3 220.041 337.99 219.961Z" fill="white"/>
<path d="M291.85 219.961C292.15 219.881 292.45 219.841 292.75 219.781C293.015 219.721 293.289 219.721 293.554 219.781C293.818 219.842 294.066 219.961 294.278 220.13C294.49 220.299 294.661 220.513 294.779 220.758C294.898 221.002 294.959 221.269 294.96 221.541C294.955 221.783 295.011 222.022 295.125 222.236C295.239 222.449 295.406 222.63 295.61 222.761C295.836 222.906 296.093 222.995 296.36 223.021C296.66 223.081 296.96 223.111 297.26 223.201C296.96 223.281 296.66 223.321 296.36 223.381C296.025 223.445 295.678 223.414 295.36 223.291C295.024 223.143 294.738 222.901 294.538 222.594C294.337 222.286 294.23 221.927 294.23 221.561C294.224 221.32 294.158 221.085 294.038 220.877C293.917 220.669 293.746 220.495 293.54 220.371C293.303 220.24 293.04 220.161 292.77 220.141C292.45 220.081 292.15 220.041 291.85 219.961Z" fill="white"/>
<path d="M354.75 279.901C355.05 279.821 355.36 279.781 355.66 279.721C355.924 279.664 356.198 279.667 356.461 279.73C356.724 279.792 356.97 279.913 357.181 280.082C357.392 280.252 357.562 280.466 357.679 280.71C357.797 280.953 357.859 281.22 357.86 281.491C357.857 281.732 357.915 281.97 358.029 282.184C358.143 282.397 358.308 282.578 358.51 282.711C358.738 282.85 358.994 282.935 359.26 282.961C359.56 283.021 359.87 283.061 360.17 283.141C359.87 283.231 359.56 283.271 359.26 283.331C358.924 283.393 358.577 283.359 358.26 283.231C357.921 283.086 357.633 282.844 357.43 282.537C357.228 282.229 357.12 281.869 357.12 281.501C357.118 281.261 357.054 281.025 356.933 280.818C356.812 280.611 356.638 280.44 356.43 280.321C356.198 280.185 355.938 280.106 355.67 280.091C355.36 280.031 355.05 279.991 354.75 279.901Z" fill="white"/>
<path d="M375.61 223.201C375.91 223.111 376.22 223.081 376.52 223.021C376.784 222.96 377.058 222.961 377.322 223.021C377.586 223.082 377.833 223.201 378.044 223.37C378.256 223.539 378.426 223.754 378.543 223.998C378.66 224.242 378.721 224.51 378.72 224.781C378.716 225.022 378.774 225.261 378.888 225.474C379.001 225.688 379.167 225.869 379.37 226.001C379.595 226.146 379.853 226.232 380.12 226.251C380.42 226.321 380.73 226.351 381.03 226.441C380.73 226.521 380.42 226.561 380.12 226.621C379.785 226.688 379.438 226.656 379.12 226.531C378.781 226.386 378.493 226.144 378.29 225.837C378.087 225.529 377.98 225.169 377.98 224.801C377.978 224.559 377.913 224.323 377.792 224.114C377.671 223.906 377.498 223.732 377.29 223.611C377.056 223.479 376.797 223.401 376.53 223.381C376.22 223.281 375.91 223.281 375.61 223.201Z" fill="white"/>
<path d="M322.28 192.711C322.59 192.631 322.89 192.591 323.19 192.531C323.523 192.458 323.87 192.482 324.19 192.601C324.537 192.73 324.837 192.962 325.049 193.266C325.261 193.569 325.377 193.93 325.38 194.301C325.379 194.542 325.438 194.779 325.551 194.992C325.665 195.205 325.829 195.387 326.03 195.521C326.259 195.656 326.515 195.741 326.78 195.771C327.09 195.831 327.39 195.871 327.69 195.951C327.39 196.041 327.09 196.071 326.78 196.141C326.444 196.199 326.098 196.164 325.78 196.041C325.437 195.894 325.145 195.648 324.944 195.334C324.742 195.021 324.64 194.653 324.65 194.281C324.645 194.041 324.579 193.807 324.459 193.601C324.338 193.394 324.166 193.222 323.96 193.101C323.725 192.963 323.461 192.881 323.19 192.861C322.89 192.831 322.59 192.801 322.28 192.711Z" fill="white"/>
<path d="M355.11 192.021C355.41 191.941 355.71 191.901 356.02 191.841C356.353 191.77 356.7 191.795 357.02 191.911C357.367 192.042 357.666 192.274 357.88 192.577C358.094 192.88 358.212 193.24 358.22 193.611C358.215 193.852 358.273 194.091 358.386 194.305C358.5 194.519 358.667 194.699 358.87 194.831C359.097 194.971 359.354 195.057 359.62 195.081C359.92 195.141 360.22 195.181 360.53 195.261C360.22 195.351 359.92 195.391 359.62 195.451C359.284 195.514 358.937 195.479 358.62 195.351C358.281 195.206 357.993 194.964 357.79 194.657C357.587 194.349 357.48 193.989 357.48 193.621C357.476 193.381 357.411 193.147 357.29 192.94C357.169 192.733 356.997 192.561 356.79 192.441C356.558 192.305 356.298 192.226 356.03 192.211C355.72 192.163 355.413 192.1 355.11 192.021Z" fill="white"/>
<path d="M333.86 160.511C334.16 160.431 334.47 160.391 334.77 160.331C335.034 160.27 335.308 160.271 335.572 160.331C335.836 160.392 336.083 160.511 336.294 160.68C336.506 160.849 336.676 161.064 336.793 161.308C336.91 161.552 336.971 161.82 336.97 162.091C336.964 162.333 337.021 162.572 337.135 162.786C337.249 162.999 337.416 163.18 337.62 163.311C337.846 163.455 338.103 163.544 338.37 163.571C338.67 163.631 338.98 163.661 339.28 163.751C338.98 163.831 338.67 163.871 338.37 163.931C338.035 163.998 337.688 163.966 337.37 163.841C337.031 163.696 336.743 163.454 336.54 163.147C336.337 162.839 336.23 162.479 336.23 162.111C336.228 161.869 336.163 161.633 336.042 161.424C335.921 161.216 335.748 161.042 335.54 160.921C335.306 160.789 335.047 160.711 334.78 160.691C334.47 160.631 334.16 160.591 333.86 160.511Z" fill="white"/>
<path d="M314.23 245.041C314.53 244.961 314.83 244.921 315.13 244.861C315.463 244.787 315.81 244.811 316.13 244.931C316.477 245.058 316.778 245.288 316.992 245.589C317.207 245.891 317.324 246.251 317.33 246.621C317.324 246.863 317.381 247.102 317.495 247.316C317.609 247.529 317.776 247.71 317.98 247.841C318.205 247.986 318.463 248.075 318.73 248.101C319.03 248.161 319.33 248.201 319.63 248.281C319.33 248.371 319.03 248.401 318.73 248.461C318.395 248.525 318.048 248.494 317.73 248.371C317.394 248.223 317.108 247.981 316.908 247.674C316.707 247.366 316.6 247.007 316.6 246.641C316.594 246.4 316.528 246.165 316.407 245.957C316.287 245.749 316.116 245.575 315.91 245.451C315.672 245.321 315.41 245.243 315.14 245.221C314.83 245.161 314.53 245.131 314.23 245.041Z" fill="white"/>
<path d="M350.05 299.971C350.35 299.881 350.66 299.841 350.96 299.781C351.224 299.724 351.498 299.727 351.761 299.79C352.024 299.852 352.27 299.973 352.481 300.142C352.691 300.312 352.862 300.526 352.979 300.77C353.097 301.013 353.158 301.28 353.16 301.551C353.157 301.792 353.215 302.03 353.329 302.244C353.442 302.457 353.608 302.638 353.81 302.771C354.036 302.914 354.293 303 354.56 303.021C354.86 303.081 355.17 303.121 355.47 303.201C355.17 303.291 354.86 303.331 354.56 303.391C354.224 303.453 353.877 303.419 353.56 303.291C353.22 303.147 352.931 302.906 352.728 302.598C352.526 302.29 352.418 301.929 352.42 301.561C352.418 301.321 352.354 301.085 352.232 300.878C352.111 300.671 351.938 300.5 351.73 300.381C351.498 300.245 351.238 300.166 350.97 300.151C350.63 300.091 350.32 300.051 350.05 299.971Z" fill="white"/>
<path d="M332.4 270.451C332.7 270.371 333 270.331 333.3 270.271C333.633 270.202 333.979 270.226 334.3 270.341C334.648 270.47 334.949 270.701 335.163 271.005C335.377 271.308 335.495 271.669 335.5 272.041C335.495 272.282 335.553 272.521 335.666 272.735C335.78 272.948 335.947 273.129 336.15 273.261C336.376 273.403 336.633 273.489 336.9 273.511C337.2 273.571 337.5 273.611 337.81 273.691C337.5 273.781 337.2 273.811 336.9 273.881C336.564 273.937 336.218 273.903 335.9 273.781C335.564 273.633 335.278 273.391 335.078 273.084C334.877 272.776 334.77 272.417 334.77 272.051C334.763 271.812 334.697 271.578 334.576 271.372C334.456 271.166 334.285 270.993 334.08 270.871C333.847 270.729 333.582 270.65 333.31 270.641C333.05 270.571 332.7 270.541 332.4 270.451Z" fill="white"/>
<path d="M299.79 275.821C300.1 275.731 300.4 275.691 300.7 275.631C300.965 275.574 301.238 275.577 301.501 275.64C301.764 275.702 302.01 275.823 302.221 275.992C302.432 276.162 302.602 276.376 302.719 276.62C302.837 276.863 302.899 277.13 302.9 277.401C302.897 277.642 302.956 277.88 303.069 278.094C303.183 278.307 303.348 278.488 303.55 278.621C303.776 278.764 304.033 278.85 304.3 278.871C304.61 278.931 304.91 278.971 305.21 279.051C304.91 279.129 304.606 279.193 304.3 279.241C303.964 279.303 303.617 279.269 303.3 279.141C302.961 278.997 302.671 278.756 302.469 278.448C302.266 278.14 302.158 277.779 302.16 277.411C302.158 277.172 302.095 276.938 301.976 276.731C301.857 276.524 301.686 276.352 301.48 276.231C301.244 276.097 300.981 276.018 300.71 276.001C300.4 275.941 300.1 275.901 299.79 275.821Z" fill="white"/>
<path d="M347.41 245.761C347.71 245.681 348.01 245.641 348.31 245.581C348.575 245.524 348.849 245.528 349.113 245.59C349.376 245.653 349.623 245.773 349.834 245.942C350.045 246.112 350.217 246.326 350.335 246.569C350.454 246.813 350.517 247.08 350.52 247.351C350.515 247.592 350.573 247.831 350.686 248.045C350.8 248.259 350.967 248.439 351.17 248.571C351.396 248.713 351.653 248.799 351.92 248.821C352.22 248.881 352.52 248.921 352.82 249.001C352.52 249.091 352.22 249.121 351.92 249.191C351.584 249.252 351.237 249.217 350.92 249.091C350.584 248.943 350.298 248.701 350.098 248.394C349.897 248.086 349.79 247.727 349.79 247.361C349.783 247.122 349.717 246.888 349.596 246.682C349.476 246.476 349.305 246.303 349.1 246.181C348.866 246.042 348.602 245.963 348.33 245.951C348.05 245.881 347.71 245.851 347.41 245.761Z" fill="white"/>
<path d="M389.1 286.171C389.4 286.091 389.71 286.051 390.01 285.991C390.343 285.918 390.69 285.942 391.01 286.061C391.357 286.19 391.657 286.422 391.869 286.726C392.082 287.029 392.197 287.39 392.2 287.761C392.199 288.002 392.258 288.239 392.371 288.452C392.485 288.665 392.649 288.847 392.85 288.981C393.08 289.116 393.335 289.201 393.6 289.231C393.91 289.291 394.21 289.331 394.51 289.411C394.21 289.501 393.91 289.531 393.6 289.601C393.334 289.65 393.06 289.639 392.799 289.569C392.538 289.499 392.296 289.372 392.09 289.197C391.884 289.021 391.72 288.803 391.609 288.556C391.498 288.309 391.444 288.041 391.45 287.771C391.448 287.531 391.384 287.295 391.263 287.088C391.141 286.881 390.968 286.71 390.76 286.591C390.529 286.451 390.269 286.369 390 286.351C389.71 286.281 389.4 286.281 389.1 286.171Z" fill="white"/>
<path d="M372.55 261.501C372.85 261.421 373.16 261.381 373.46 261.321C373.724 261.264 373.998 261.267 374.261 261.33C374.524 261.392 374.77 261.513 374.981 261.682C375.191 261.852 375.362 262.066 375.479 262.31C375.597 262.553 375.658 262.82 375.66 263.091C375.655 263.332 375.713 263.571 375.826 263.785C375.94 263.999 376.107 264.179 376.31 264.311C376.535 264.456 376.793 264.542 377.06 264.561C377.36 264.621 377.67 264.661 377.97 264.741C377.67 264.831 377.36 264.871 377.06 264.931C376.724 264.994 376.377 264.959 376.06 264.831C375.72 264.687 375.431 264.446 375.228 264.138C375.026 263.83 374.918 263.469 374.92 263.101C374.918 262.861 374.854 262.625 374.732 262.418C374.611 262.211 374.438 262.04 374.23 261.921C373.998 261.785 373.738 261.706 373.47 261.691C373.16 261.631 372.85 261.591 372.55 261.501Z" fill="white"/>
<path d="M407.73 297.451C408.04 297.371 408.34 297.331 408.64 297.271C408.904 297.214 409.178 297.217 409.441 297.28C409.704 297.342 409.95 297.463 410.161 297.632C410.372 297.802 410.542 298.016 410.659 298.26C410.777 298.503 410.839 298.77 410.84 299.041C410.837 299.282 410.895 299.52 411.009 299.734C411.123 299.947 411.288 300.128 411.49 300.261C411.716 300.404 411.973 300.49 412.24 300.511C412.55 300.571 412.85 300.611 413.15 300.691C412.85 300.769 412.546 300.833 412.24 300.881C411.904 300.943 411.557 300.909 411.24 300.781C410.901 300.637 410.612 300.396 410.411 300.088C410.21 299.78 410.105 299.419 410.11 299.051C410.104 298.812 410.037 298.578 409.916 298.372C409.796 298.166 409.625 297.993 409.42 297.871C409.184 297.736 408.921 297.658 408.65 297.641C408.34 297.581 408.05 297.541 407.73 297.451Z" fill="white"/>
<path d="M325.05 209.741C324.9 210.011 324.71 210.251 324.54 210.511C324.395 210.74 324.2 210.934 323.969 211.077C323.739 211.221 323.479 211.311 323.209 211.341C322.94 211.371 322.667 211.339 322.41 211.249C322.154 211.159 321.922 211.013 321.73 210.821C321.563 210.646 321.354 210.517 321.123 210.447C320.891 210.377 320.646 210.368 320.41 210.421C320.149 210.479 319.905 210.599 319.7 210.771C319.453 210.954 319.196 211.125 318.93 211.281C319.09 211.011 319.27 210.771 319.44 210.511C319.636 210.223 319.91 209.998 320.23 209.861C320.568 209.728 320.937 209.697 321.293 209.771C321.648 209.846 321.974 210.023 322.23 210.281C322.403 210.448 322.617 210.567 322.849 210.629C323.082 210.69 323.327 210.691 323.56 210.631C323.82 210.56 324.059 210.43 324.26 210.251C324.58 210.081 324.82 209.891 325.05 209.741Z" fill="white"/>
<path d="M312.98 189.491C312.83 189.761 312.64 190.001 312.47 190.261C312.325 190.49 312.13 190.684 311.899 190.827C311.669 190.971 311.409 191.061 311.139 191.091C310.87 191.121 310.596 191.089 310.34 190.999C310.084 190.909 309.852 190.763 309.66 190.571C309.494 190.395 309.284 190.265 309.053 190.195C308.821 190.125 308.576 190.117 308.34 190.171C308.079 190.229 307.835 190.349 307.63 190.521C307.383 190.704 307.126 190.875 306.86 191.031C307.02 190.761 307.2 190.521 307.37 190.261C307.566 189.973 307.84 189.748 308.16 189.611C308.498 189.478 308.867 189.447 309.223 189.521C309.578 189.596 309.904 189.773 310.16 190.031C310.333 190.198 310.546 190.319 310.779 190.38C311.012 190.441 311.257 190.442 311.49 190.381C311.749 190.31 311.989 190.18 312.19 190.001C312.47 189.831 312.71 189.641 312.98 189.491Z" fill="white"/>
<path d="M374.05 244.991C373.89 245.271 373.71 245.511 373.54 245.761C373.35 246.051 373.083 246.282 372.77 246.431C372.438 246.575 372.071 246.618 371.715 246.554C371.359 246.49 371.03 246.321 370.77 246.071C370.602 245.898 370.392 245.771 370.161 245.701C369.931 245.631 369.686 245.621 369.45 245.671C369.189 245.729 368.946 245.849 368.74 246.021C368.48 246.191 368.24 246.381 367.97 246.531C368.12 246.261 368.31 246.021 368.48 245.761C368.672 245.474 368.943 245.248 369.26 245.111C369.599 244.981 369.967 244.952 370.322 245.027C370.676 245.101 371.002 245.276 371.26 245.531C371.431 245.698 371.642 245.819 371.874 245.88C372.105 245.942 372.348 245.942 372.58 245.881C372.841 245.812 373.084 245.686 373.29 245.511C373.57 245.341 373.81 245.151 374.05 244.991Z" fill="white"/>
<path d="M343.51 179.361C343.36 179.631 343.17 179.871 343 180.131C342.813 180.417 342.55 180.645 342.24 180.791C341.902 180.943 341.527 180.991 341.161 180.929C340.796 180.866 340.458 180.696 340.19 180.441C340.022 180.266 339.814 180.137 339.583 180.065C339.352 179.994 339.107 179.982 338.87 180.031C338.609 180.091 338.367 180.211 338.16 180.381C337.9 180.551 337.66 180.741 337.39 180.901C337.54 180.621 337.73 180.381 337.9 180.121C338.094 179.833 338.369 179.61 338.69 179.481C339.028 179.348 339.397 179.317 339.753 179.391C340.108 179.466 340.434 179.643 340.69 179.901C340.865 180.075 341.082 180.202 341.32 180.269C341.558 180.335 341.81 180.339 342.05 180.281C342.308 180.206 342.547 180.076 342.75 179.901C343.05 179.701 343.24 179.511 343.51 179.361Z" fill="white"/>
<path d="M322.33 164.401C322.18 164.671 321.99 164.911 321.82 165.171C321.631 165.458 321.369 165.689 321.06 165.841C320.721 165.992 320.345 166.038 319.98 165.974C319.615 165.91 319.277 165.738 319.01 165.481C318.843 165.306 318.634 165.177 318.403 165.107C318.171 165.037 317.926 165.028 317.69 165.081C317.428 165.137 317.184 165.257 316.98 165.431C316.72 165.601 316.48 165.791 316.21 165.941C316.36 165.671 316.55 165.431 316.72 165.171C316.914 164.881 317.188 164.655 317.51 164.521C317.848 164.388 318.217 164.357 318.573 164.431C318.928 164.506 319.254 164.683 319.51 164.941C319.682 165.109 319.895 165.23 320.129 165.292C320.362 165.353 320.607 165.353 320.84 165.291C321.1 165.22 321.339 165.09 321.54 164.911C321.82 164.741 322.05 164.551 322.33 164.401Z" fill="white"/>
<path d="M342.32 198.401C342.41 198.701 342.44 199.011 342.51 199.311C342.572 199.644 342.548 199.989 342.44 200.311C342.308 200.656 342.076 200.954 341.773 201.166C341.47 201.379 341.11 201.495 340.74 201.501C340.498 201.497 340.26 201.555 340.046 201.668C339.833 201.782 339.652 201.948 339.52 202.151C339.375 202.376 339.289 202.634 339.27 202.901C339.2 203.201 339.17 203.511 339.08 203.811C339 203.511 338.96 203.201 338.9 202.901C338.832 202.565 338.867 202.216 339 201.901C339.143 201.56 339.384 201.27 339.692 201.067C340 200.864 340.361 200.758 340.73 200.761C340.97 200.758 341.204 200.693 341.411 200.572C341.618 200.451 341.79 200.278 341.91 200.071C342.041 199.837 342.12 199.578 342.14 199.311C342.2 199.011 342.24 198.701 342.32 198.401Z" fill="white"/>
<path d="M335.11 251.671C335.19 251.971 335.23 252.281 335.29 252.581C335.346 252.845 335.343 253.119 335.28 253.382C335.218 253.645 335.097 253.891 334.928 254.101C334.758 254.312 334.544 254.482 334.3 254.6C334.057 254.717 333.79 254.779 333.52 254.781C333.278 254.776 333.039 254.833 332.825 254.947C332.612 255.061 332.431 255.227 332.3 255.431C332.159 255.658 332.073 255.914 332.05 256.181C331.99 256.481 331.95 256.791 331.87 257.091C331.78 256.791 331.74 256.481 331.68 256.181C331.616 255.845 331.651 255.497 331.78 255.181C331.925 254.842 332.166 254.553 332.474 254.351C332.781 254.148 333.141 254.04 333.51 254.041C333.75 254.039 333.985 253.974 334.192 253.853C334.399 253.732 334.571 253.559 334.69 253.351C334.825 253.119 334.904 252.859 334.92 252.591C334.98 252.281 335.05 251.971 335.11 251.671Z" fill="white"/>
<path d="M405.05 276.351C405.14 276.651 405.18 276.951 405.24 277.251C405.296 277.516 405.293 277.79 405.23 278.053C405.168 278.317 405.047 278.563 404.878 278.775C404.709 278.986 404.495 279.157 404.251 279.276C404.007 279.395 403.741 279.458 403.47 279.461C403.228 279.456 402.989 279.513 402.775 279.627C402.562 279.741 402.381 279.907 402.25 280.111C402.103 280.335 402.017 280.593 402 280.861C401.94 281.161 401.9 281.461 401.82 281.761C401.73 281.461 401.69 281.161 401.63 280.861C401.569 280.524 401.603 280.178 401.73 279.861C401.876 279.524 402.118 279.237 402.426 279.037C402.733 278.836 403.093 278.729 403.46 278.731C403.699 278.724 403.932 278.658 404.138 278.537C404.345 278.416 404.517 278.246 404.64 278.041C404.774 277.805 404.852 277.541 404.87 277.271C404.94 276.951 404.98 276.651 405.05 276.351Z" fill="white"/>
<path d="M372.65 205.781C372.73 206.081 372.77 206.381 372.83 206.691C372.9 207.024 372.876 207.37 372.76 207.691C372.628 208.037 372.396 208.337 372.093 208.551C371.791 208.764 371.431 208.883 371.06 208.891C370.818 208.886 370.579 208.943 370.365 209.057C370.152 209.171 369.971 209.337 369.84 209.541C369.699 209.768 369.614 210.024 369.59 210.291C369.53 210.591 369.49 210.891 369.41 211.201C369.32 210.891 369.29 210.591 369.22 210.291C369.171 210.025 369.182 209.751 369.251 209.49C369.321 209.229 369.448 208.986 369.624 208.78C369.799 208.575 370.018 208.41 370.265 208.3C370.511 208.189 370.78 208.135 371.05 208.141C371.289 208.137 371.524 208.072 371.731 207.951C371.937 207.83 372.109 207.658 372.23 207.451C372.37 207.221 372.449 206.959 372.46 206.691C372.53 206.381 372.56 206.081 372.65 205.781Z" fill="white"/>
<path d="M372.65 291.281C372.73 291.581 372.77 291.881 372.83 292.181C372.886 292.446 372.883 292.72 372.82 292.983C372.758 293.247 372.637 293.493 372.468 293.705C372.299 293.916 372.085 294.087 371.841 294.206C371.597 294.325 371.331 294.388 371.06 294.391C370.818 294.386 370.579 294.443 370.365 294.557C370.152 294.671 369.971 294.837 369.84 295.041C369.697 295.267 369.612 295.524 369.59 295.791C369.53 296.091 369.49 296.391 369.41 296.691C369.32 296.391 369.29 296.091 369.22 295.791C369.163 295.454 369.198 295.109 369.32 294.791C369.467 294.455 369.709 294.169 370.017 293.968C370.324 293.768 370.683 293.661 371.05 293.661C371.289 293.654 371.522 293.588 371.728 293.467C371.935 293.346 372.107 293.176 372.23 292.971C372.371 292.738 372.45 292.473 372.46 292.201C372.53 291.911 372.56 291.611 372.65 291.281Z" fill="white"/>
<path d="M389.1 242.331C389.19 242.631 389.22 242.941 389.28 243.241C389.34 243.505 389.34 243.779 389.279 244.043C389.219 244.307 389.1 244.554 388.93 244.765C388.761 244.976 388.546 245.147 388.302 245.264C388.058 245.381 387.791 245.441 387.52 245.441C387.278 245.437 387.039 245.495 386.826 245.608C386.613 245.722 386.432 245.888 386.3 246.091C386.155 246.316 386.069 246.574 386.05 246.841C385.98 247.141 385.95 247.451 385.86 247.751C385.78 247.451 385.74 247.141 385.68 246.841C385.612 246.505 385.646 246.156 385.78 245.841C385.922 245.502 386.161 245.213 386.467 245.01C386.773 244.807 387.133 244.7 387.5 244.701C387.741 244.699 387.977 244.634 388.186 244.513C388.395 244.392 388.568 244.219 388.69 244.011C388.821 243.777 388.899 243.518 388.92 243.251C388.98 242.941 389.05 242.631 389.1 242.331Z" fill="white"/>
<path d="M305.74 253.581C305.83 253.881 305.86 254.181 305.92 254.481C305.98 254.745 305.98 255.02 305.919 255.284C305.859 255.549 305.74 255.796 305.571 256.008C305.402 256.22 305.187 256.392 304.943 256.51C304.699 256.628 304.431 256.69 304.16 256.691C303.918 256.685 303.679 256.742 303.465 256.856C303.251 256.97 303.07 257.137 302.94 257.341C302.793 257.565 302.707 257.823 302.69 258.091C302.62 258.391 302.59 258.691 302.5 258.991C302.42 258.691 302.38 258.391 302.32 258.091C302.254 257.755 302.289 257.407 302.42 257.091C302.564 256.754 302.804 256.467 303.109 256.266C303.415 256.065 303.774 255.959 304.14 255.961C304.38 255.955 304.615 255.889 304.823 255.768C305.031 255.647 305.206 255.476 305.33 255.271C305.462 255.034 305.541 254.771 305.56 254.501C305.62 254.181 305.66 253.881 305.74 253.581Z" fill="white"/>
<path d="M307.36 205.781C307.435 206.081 307.495 206.384 307.54 206.691C307.614 207.023 307.593 207.369 307.48 207.691C307.348 208.037 307.116 208.337 306.813 208.551C306.51 208.764 306.15 208.883 305.78 208.891C305.538 208.885 305.298 208.942 305.085 209.056C304.871 209.17 304.69 209.337 304.56 209.541C304.415 209.766 304.329 210.024 304.31 210.291C304.24 210.591 304.21 210.891 304.12 211.201C304.04 210.891 304 210.591 303.94 210.291C303.873 209.956 303.904 209.608 304.03 209.291C304.175 208.952 304.416 208.663 304.724 208.461C305.031 208.258 305.391 208.15 305.76 208.151C306.001 208.147 306.236 208.081 306.445 207.961C306.653 207.84 306.827 207.668 306.95 207.461C307.081 207.227 307.159 206.968 307.18 206.701C307.24 206.381 307.28 206.081 307.36 205.781Z" fill="white"/>
<path d="M324.8 174.711C324.88 175.011 324.92 175.311 324.98 175.621C325.05 175.954 325.026 176.3 324.91 176.621C324.778 176.967 324.546 177.267 324.244 177.481C323.941 177.694 323.581 177.813 323.21 177.821C322.968 177.816 322.729 177.873 322.516 177.987C322.302 178.101 322.121 178.267 321.99 178.471C321.849 178.698 321.764 178.954 321.74 179.221C321.68 179.521 321.64 179.821 321.56 180.131C321.47 179.821 321.44 179.521 321.37 179.221C321.309 178.884 321.343 178.538 321.47 178.221C321.618 177.885 321.86 177.599 322.167 177.398C322.474 177.198 322.833 177.091 323.2 177.091C323.439 177.087 323.674 177.022 323.881 176.901C324.087 176.78 324.259 176.607 324.38 176.401C324.52 176.171 324.599 175.909 324.61 175.641C324.68 175.281 324.71 175.011 324.8 174.711Z" fill="white"/>
<path d="M320.12 222.741C320.2 223.051 320.24 223.351 320.3 223.651C320.356 223.916 320.353 224.19 320.29 224.453C320.228 224.717 320.107 224.963 319.938 225.175C319.769 225.386 319.555 225.557 319.311 225.676C319.068 225.795 318.801 225.858 318.53 225.861C318.288 225.856 318.049 225.913 317.835 226.027C317.622 226.141 317.441 226.307 317.31 226.511C317.167 226.737 317.082 226.994 317.06 227.261C317 227.561 316.96 227.861 316.88 228.161C316.79 227.861 316.75 227.561 316.69 227.261C316.629 226.924 316.663 226.578 316.79 226.261C316.937 225.925 317.18 225.639 317.487 225.438C317.794 225.238 318.153 225.131 318.52 225.131C318.759 225.124 318.992 225.058 319.198 224.937C319.405 224.816 319.577 224.646 319.7 224.441C319.834 224.205 319.913 223.941 319.93 223.671C319.99 223.351 320.05 223.051 320.12 222.741Z" fill="white"/>
<path d="M362.15 229.201C362.23 229.501 362.27 229.811 362.33 230.111C362.386 230.375 362.383 230.649 362.321 230.912C362.258 231.175 362.138 231.421 361.968 231.631C361.799 231.842 361.584 232.012 361.341 232.13C361.097 232.247 360.83 232.309 360.56 232.311C360.318 232.308 360.08 232.366 359.867 232.48C359.654 232.593 359.472 232.759 359.34 232.961C359.201 233.188 359.115 233.445 359.09 233.711C359.03 234.011 358.99 234.321 358.91 234.621C358.82 234.321 358.79 234.011 358.72 233.711C358.657 233.374 358.692 233.027 358.82 232.711C358.965 232.372 359.206 232.083 359.514 231.881C359.821 231.678 360.182 231.57 360.55 231.571C360.79 231.569 361.025 231.504 361.232 231.383C361.439 231.262 361.611 231.089 361.73 230.881C361.87 230.651 361.949 230.389 361.96 230.121C362.05 229.811 362.05 229.501 362.15 229.201Z" fill="white"/>
<path d="M323.3 283.141C323.38 283.451 323.42 283.751 323.48 284.051C323.54 284.315 323.54 284.59 323.479 284.854C323.419 285.119 323.299 285.366 323.13 285.578C322.962 285.79 322.747 285.962 322.503 286.08C322.259 286.198 321.991 286.26 321.72 286.261C321.477 286.253 321.237 286.309 321.023 286.423C320.809 286.537 320.629 286.705 320.5 286.911C320.356 287.133 320.267 287.387 320.24 287.651C320.195 287.957 320.135 288.26 320.06 288.561C319.98 288.261 319.94 287.961 319.88 287.651C319.813 287.316 319.845 286.968 319.97 286.651C320.114 286.312 320.356 286.024 320.663 285.823C320.971 285.622 321.332 285.517 321.7 285.521C321.94 285.515 322.175 285.449 322.383 285.328C322.591 285.207 322.765 285.036 322.89 284.831C323.019 284.593 323.098 284.33 323.12 284.061C323.18 283.751 323.22 283.451 323.3 283.141Z" fill="white"/>
<path d="M354.94 213.951C355.1 213.681 355.29 213.441 355.46 213.181C355.644 212.892 355.908 212.662 356.22 212.521C356.551 212.376 356.917 212.332 357.273 212.395C357.628 212.457 357.958 212.622 358.22 212.871C358.389 213.045 358.6 213.174 358.833 213.246C359.065 213.317 359.312 213.329 359.55 213.281C359.807 213.22 360.047 213.1 360.25 212.931C360.51 212.751 360.75 212.571 361.03 212.411C360.87 212.691 360.68 212.931 360.51 213.191C360.317 213.475 360.046 213.697 359.73 213.831C359.392 213.961 359.023 213.991 358.668 213.916C358.313 213.842 357.987 213.666 357.73 213.411C357.557 213.246 357.345 213.128 357.115 213.066C356.884 213.005 356.642 213.003 356.41 213.061C356.152 213.135 355.913 213.265 355.71 213.441C355.46 213.611 355.22 213.801 354.94 213.951Z" fill="white"/>
<path d="M330.43 236.161C330.58 235.891 330.77 235.651 330.94 235.391C331.085 235.161 331.28 234.968 331.511 234.824C331.741 234.68 332.001 234.59 332.27 234.56C332.54 234.53 332.813 234.562 333.069 234.652C333.326 234.742 333.558 234.888 333.75 235.081C333.916 235.256 334.125 235.386 334.357 235.456C334.588 235.526 334.834 235.535 335.07 235.481C335.331 235.422 335.575 235.302 335.78 235.131C336.027 234.947 336.284 234.777 336.55 234.621C336.39 234.891 336.21 235.131 336.04 235.391C335.887 235.615 335.686 235.801 335.452 235.938C335.217 236.074 334.955 236.156 334.685 236.178C334.414 236.2 334.143 236.162 333.889 236.065C333.636 235.969 333.407 235.817 333.22 235.621C333.049 235.454 332.837 235.334 332.606 235.272C332.375 235.211 332.131 235.21 331.9 235.271C331.642 235.345 331.403 235.475 331.2 235.651C330.94 235.821 330.7 236.011 330.43 236.161Z" fill="white"/>
<path d="M313.81 268.881C313.97 268.601 314.16 268.361 314.33 268.111C314.475 267.881 314.67 267.687 314.901 267.544C315.131 267.4 315.391 267.31 315.661 267.28C315.93 267.25 316.203 267.282 316.46 267.372C316.716 267.462 316.948 267.608 317.14 267.801C317.308 267.974 317.517 268.102 317.748 268.172C317.979 268.242 318.224 268.252 318.46 268.201C318.721 268.142 318.965 268.022 319.17 267.851C319.417 267.667 319.674 267.497 319.94 267.341C319.78 267.611 319.6 267.851 319.43 268.111C319.278 268.334 319.078 268.521 318.844 268.657C318.611 268.794 318.35 268.876 318.08 268.898C317.811 268.92 317.539 268.881 317.287 268.785C317.034 268.689 316.806 268.537 316.62 268.341C316.447 268.173 316.234 268.052 316.001 267.991C315.768 267.93 315.523 267.929 315.29 267.991C315.031 268.057 314.791 268.184 314.59 268.361C314.33 268.541 314.05 268.721 313.81 268.881Z" fill="white"/>
<path d="M320.99 302.871C321.15 302.601 321.34 302.361 321.51 302.101C321.694 301.812 321.958 301.582 322.27 301.441C322.601 301.299 322.967 301.256 323.322 301.319C323.677 301.381 324.006 301.545 324.27 301.791C324.437 301.966 324.646 302.095 324.877 302.167C325.108 302.239 325.353 302.25 325.59 302.201C325.852 302.138 326.095 302.015 326.3 301.841C326.55 301.671 326.79 301.491 327.07 301.331C326.91 301.611 326.73 301.851 326.56 302.101C326.364 302.388 326.09 302.614 325.77 302.751C325.432 302.881 325.063 302.911 324.708 302.836C324.353 302.762 324.027 302.586 323.77 302.331C323.597 302.166 323.386 302.048 323.155 301.986C322.924 301.925 322.682 301.923 322.45 301.981C322.192 302.056 321.953 302.185 321.75 302.361C321.51 302.531 321.27 302.721 320.99 302.871Z" fill="white"/>
<path d="M353.14 265.511C353.29 265.241 353.48 265.001 353.65 264.741C353.837 264.454 354.1 264.226 354.41 264.081C354.748 263.928 355.123 263.88 355.488 263.942C355.854 264.005 356.192 264.175 356.46 264.431C356.627 264.606 356.836 264.735 357.067 264.807C357.298 264.879 357.543 264.89 357.78 264.841C358.039 264.778 358.282 264.658 358.49 264.491C358.74 264.321 358.98 264.131 359.26 263.971C359.1 264.251 358.92 264.491 358.75 264.751C358.556 265.038 358.281 265.261 357.96 265.391C357.622 265.523 357.252 265.555 356.897 265.48C356.542 265.405 356.216 265.228 355.96 264.971C355.785 264.806 355.572 264.688 355.339 264.627C355.107 264.565 354.863 264.563 354.63 264.621C354.372 264.696 354.133 264.825 353.93 265.001C353.65 265.171 353.41 265.361 353.14 265.511Z" fill="white"/>
<path d="M375.26 279.051C375.41 278.781 375.6 278.541 375.77 278.281C375.959 277.996 376.222 277.768 376.53 277.621C376.861 277.479 377.227 277.436 377.582 277.499C377.937 277.561 378.266 277.725 378.53 277.971C378.697 278.145 378.906 278.274 379.137 278.346C379.368 278.417 379.613 278.429 379.85 278.381C380.11 278.32 380.353 278.2 380.56 278.031C380.82 277.861 381.06 277.671 381.33 277.511C381.18 277.791 380.99 278.031 380.82 278.291C380.628 278.58 380.353 278.803 380.03 278.931C379.692 279.063 379.322 279.095 378.967 279.02C378.612 278.945 378.286 278.768 378.03 278.511C377.855 278.346 377.642 278.228 377.409 278.167C377.177 278.105 376.933 278.103 376.7 278.161C376.442 278.236 376.203 278.365 376 278.541C375.77 278.711 375.53 278.901 375.26 279.051Z" fill="white"/>
<path d="M338.05 289.331C338.2 289.061 338.39 288.821 338.56 288.561C338.744 288.272 339.008 288.042 339.32 287.901C339.657 287.748 340.033 287.7 340.398 287.762C340.764 287.825 341.102 287.995 341.37 288.251C341.537 288.426 341.746 288.555 341.977 288.627C342.208 288.699 342.453 288.71 342.69 288.661C342.952 288.598 343.195 288.475 343.4 288.301C343.65 288.131 343.89 287.951 344.17 287.791C344.01 288.071 343.83 288.311 343.66 288.561C343.467 288.851 343.192 289.077 342.87 289.211C342.532 289.343 342.162 289.375 341.807 289.3C341.452 289.225 341.126 289.048 340.87 288.791C340.695 288.626 340.482 288.508 340.249 288.447C340.017 288.385 339.773 288.383 339.54 288.441C339.282 288.516 339.043 288.645 338.84 288.821C338.56 288.991 338.32 289.181 338.05 289.331Z" fill="white"/>
<path d="M386.05 302.871C386.21 302.601 386.39 302.361 386.56 302.101C386.746 301.814 387.01 301.585 387.32 301.441C387.657 301.288 388.033 301.24 388.398 301.302C388.764 301.365 389.102 301.535 389.37 301.791C389.537 301.965 389.746 302.094 389.977 302.166C390.208 302.237 390.453 302.249 390.69 302.201C390.95 302.14 391.193 302.02 391.4 301.851C391.66 301.671 391.9 301.491 392.17 301.331C392.02 301.611 391.83 301.851 391.66 302.111C391.467 302.395 391.196 302.617 390.88 302.751C390.542 302.882 390.172 302.913 389.817 302.838C389.462 302.763 389.136 302.587 388.88 302.331C388.706 302.167 388.495 302.049 388.264 301.988C388.034 301.927 387.792 301.924 387.56 301.981C387.298 302.053 387.055 302.183 386.85 302.361C386.55 302.531 386.31 302.721 386.05 302.871Z" fill="white"/>
<path d="M391.46 266.281C391.61 266.001 391.8 265.761 391.97 265.501C392.159 265.216 392.422 264.988 392.73 264.841C393.068 264.688 393.443 264.64 393.808 264.702C394.174 264.765 394.512 264.935 394.78 265.191C394.947 265.365 395.156 265.494 395.387 265.566C395.618 265.637 395.863 265.649 396.1 265.601C396.36 265.54 396.603 265.42 396.81 265.251C397.07 265.081 397.31 264.891 397.58 264.731C397.43 265.011 397.24 265.251 397.07 265.511C396.879 265.8 396.603 266.023 396.28 266.151C395.942 266.283 395.573 266.315 395.217 266.24C394.862 266.165 394.536 265.988 394.28 265.731C394.107 265.567 393.895 265.449 393.664 265.388C393.434 265.327 393.192 265.324 392.96 265.381C392.698 265.453 392.455 265.583 392.25 265.761C391.97 265.941 391.73 266.131 391.46 266.281Z" fill="white"/>
<path d="M303.8 294.021C303.96 293.741 304.14 293.501 304.31 293.241C304.499 292.956 304.762 292.728 305.07 292.581C305.407 292.428 305.783 292.38 306.148 292.442C306.514 292.505 306.852 292.675 307.12 292.931C307.287 293.105 307.496 293.234 307.727 293.306C307.958 293.377 308.203 293.389 308.44 293.341C308.7 293.28 308.943 293.16 309.15 292.991C309.41 292.821 309.65 292.631 309.92 292.471C309.77 292.751 309.58 292.991 309.41 293.251C309.22 293.537 308.948 293.76 308.63 293.891C308.292 294.022 307.922 294.053 307.567 293.978C307.212 293.903 306.886 293.727 306.63 293.471C306.457 293.306 306.245 293.189 306.014 293.129C305.783 293.07 305.541 293.07 305.31 293.131C305.047 293.195 304.803 293.322 304.6 293.501C304.31 293.671 304.05 293.861 303.8 294.021Z" fill="white"/>
<path d="M301.05 236.931C301.2 236.661 301.39 236.421 301.56 236.161C301.749 235.873 302.011 235.642 302.32 235.491C302.658 235.339 303.035 235.293 303.4 235.357C303.765 235.421 304.103 235.593 304.37 235.851C304.537 236.025 304.746 236.154 304.977 236.224C305.208 236.294 305.454 236.303 305.69 236.251C305.953 236.199 306.198 236.078 306.4 235.901C306.66 235.731 306.9 235.541 307.17 235.391C307.014 235.656 306.844 235.913 306.66 236.161C306.468 236.448 306.197 236.673 305.88 236.811C305.542 236.942 305.172 236.972 304.817 236.898C304.462 236.823 304.136 236.647 303.88 236.391C303.708 236.224 303.496 236.105 303.265 236.044C303.034 235.982 302.791 235.981 302.56 236.041C302.298 236.113 302.055 236.243 301.85 236.421C301.57 236.591 301.33 236.781 301.05 236.931Z" fill="white"/>
<path d="M333.68 160.761C333.31 162.631 324.87 174.941 316.39 174.831C313.63 174.781 313.19 159.701 313.19 159.701L312.9 158.601L308.9 143.121L326.83 130.751L329.43 129.111C329.43 129.111 330.24 133.421 331.21 138.791C331.21 139.041 331.3 139.291 331.34 139.561C331.38 139.831 331.47 140.141 331.51 140.431C331.67 141.231 331.82 142.051 331.96 142.871C332.07 143.491 332.17 144.091 332.26 144.751C332.35 145.411 332.45 146.051 332.56 146.751C333.252 151.39 333.626 156.071 333.68 160.761Z" fill="#DF8C7E"/>
<path d="M331.21 138.791C329.778 143.223 327.398 147.291 324.236 150.712C321.074 154.132 317.206 156.824 312.9 158.601L308.9 143.121L326.83 130.751L329.43 129.111C329.43 129.111 330.24 133.421 331.21 138.791Z" fill="#263238"/>
<path d="M286.92 120.131C286.18 148.191 302.92 151.801 308.92 151.951C314.41 152.091 333.13 151.871 336.77 124.041C340.41 96.2106 327.59 87.0406 315.05 86.0406C302.51 85.0406 287.66 92.0706 286.92 120.131Z" fill="#DF8C7E"/>
<path d="M291.18 111.641C291.84 111.531 292.42 111.331 293.06 111.161C293.743 111.077 294.382 110.776 294.88 110.301C295.007 110.12 295.072 109.903 295.063 109.682C295.054 109.461 294.972 109.25 294.83 109.081C294.497 108.79 294.093 108.594 293.659 108.511C293.225 108.428 292.776 108.463 292.36 108.611C291.474 108.778 290.682 109.27 290.14 109.991C290.026 110.162 289.965 110.363 289.962 110.569C289.96 110.775 290.017 110.977 290.127 111.151C290.237 111.326 290.395 111.464 290.581 111.551C290.768 111.638 290.976 111.669 291.18 111.641Z" fill="#263238"/>
<path d="M309.94 115.741C309.295 115.67 308.654 115.563 308.02 115.421C307.335 115.402 306.675 115.16 306.14 114.731C305.997 114.562 305.913 114.352 305.902 114.131C305.891 113.91 305.954 113.692 306.08 113.511C306.386 113.191 306.771 112.959 307.196 112.837C307.622 112.716 308.072 112.71 308.5 112.821C309.398 112.913 310.229 113.337 310.83 114.011C310.961 114.17 311.043 114.365 311.065 114.571C311.086 114.776 311.048 114.984 310.953 115.168C310.859 115.352 310.712 115.504 310.532 115.606C310.352 115.707 310.146 115.754 309.94 115.741Z" fill="#263238"/>
<path d="M295.32 120.771C295.32 120.701 295.18 120.871 295.18 120.951C295.37 122.851 295.27 125.061 293.59 125.811C293.53 125.811 293.59 125.931 293.59 125.921C295.69 125.481 295.8 122.541 295.32 120.771Z" fill="#263238"/>
<path d="M293.48 118.891C290.4 118.891 290.57 125.031 293.43 125.061C296.29 125.091 296.05 118.921 293.48 118.891Z" fill="#263238"/>
<path d="M292.21 119.341C291.73 119.681 291.27 120.281 290.68 120.341C290.09 120.401 289.49 119.751 289.04 119.121C289.04 119.061 288.95 119.121 288.95 119.191C288.95 120.371 289.38 121.591 290.51 121.781C291.64 121.971 292.28 120.931 292.51 119.781C292.58 119.531 292.4 119.201 292.21 119.341Z" fill="#263238"/>
<path d="M307.87 137.101C307.4 137.531 306.92 138.101 306.22 138.171C305.522 138.124 304.841 137.934 304.22 137.611C304.206 137.604 304.191 137.602 304.176 137.605C304.161 137.608 304.147 137.615 304.137 137.627C304.127 137.638 304.121 137.652 304.119 137.667C304.118 137.683 304.122 137.698 304.13 137.711C304.39 138.098 304.752 138.406 305.174 138.604C305.597 138.801 306.066 138.879 306.53 138.831C306.925 138.747 307.286 138.545 307.564 138.252C307.843 137.96 308.026 137.59 308.09 137.191C308.05 137.081 307.94 137.041 307.87 137.101Z" fill="#263238"/>
<path d="M298.31 129.431C298.31 129.431 298.09 132.291 298.16 133.631C300.779 133.487 303.405 133.716 305.96 134.311C306.56 134.471 306.52 133.981 305.84 133.621C303.814 132.565 301.519 132.14 299.25 132.401C299.13 132.031 299.68 128.001 299.47 128.001C298.436 128.152 297.427 128.442 296.47 128.861C296.77 122.861 298.03 117.021 298.24 111.071C298.243 111.027 298.23 110.984 298.203 110.949C298.176 110.914 298.138 110.891 298.095 110.882C298.053 110.873 298.008 110.881 297.97 110.903C297.932 110.924 297.904 110.959 297.89 111.001C296.13 117.071 295.63 123.931 295.16 130.091C295.1 130.851 297.79 129.691 298.31 129.431Z" fill="#263238"/>
<path d="M311.66 120.871C310.537 120.43 309.308 120.333 308.13 120.591C307.498 120.734 306.9 120.999 306.37 121.371C305.823 121.779 305.375 122.305 305.06 122.911L304.47 124.001L305.68 123.871C306.531 123.78 307.389 123.78 308.24 123.871C309.128 123.948 309.981 124.251 310.72 124.751C310.236 123.867 309.424 123.21 308.46 122.921C307.52 122.61 306.525 122.498 305.54 122.591L306.16 123.591C306.677 122.723 307.474 122.056 308.42 121.701C309.461 121.29 310.549 121.012 311.66 120.871Z" fill="#263238"/>
<path d="M308.19 125.841C307.284 125.628 306.413 125.291 305.6 124.841C305.41 124.721 304.68 124.171 304.72 124.011C304.823 123.546 304.984 123.095 305.2 122.671C304.864 123.048 304.608 123.491 304.45 123.971C304.506 124.235 304.619 124.484 304.781 124.7C304.944 124.916 305.151 125.093 305.39 125.221C306.25 125.677 307.217 125.892 308.19 125.841Z" fill="#263238"/>
<path d="M301.55 133.431C301.55 133.431 303.29 135.931 305.29 136.231C307.59 136.591 307.86 134.521 305.29 133.341C303.99 132.731 301.55 133.431 301.55 133.431Z" fill="#263238"/>
<path d="M305.28 136.281C304.408 136.1 303.606 135.673 302.97 135.051C303.45 134.341 304.55 133.551 307.02 134.881C307.38 135.721 306.74 136.461 305.28 136.281Z" fill="#FF99BA"/>
<path d="M336.6 124.711C331.98 125.291 330.44 115.621 330.44 115.621C330.44 115.621 321.02 116.101 317.25 102.701C317.718 106.749 319.358 110.572 321.97 113.701C321.97 113.701 305.26 112.701 297.59 99.1706C297.59 99.1706 300.73 106.121 303.47 108.511C303.47 108.511 296.4 106.911 292.73 101.411C292.73 101.411 290.21 109.581 288.08 111.911C288.08 111.911 287.35 82.8006 314.44 84.5806C314.44 84.5806 331.36 84.8806 338.07 97.9406C344.78 111.001 336.6 124.711 336.6 124.711Z" fill="#263238"/>
<path d="M332.28 126.071C332.28 126.071 337.87 116.961 341.97 118.901C346.07 120.841 342.23 133.801 337.68 135.811C337.114 136.11 336.494 136.292 335.856 136.345C335.218 136.397 334.576 136.321 333.969 136.119C333.361 135.917 332.801 135.594 332.322 135.17C331.842 134.746 331.454 134.229 331.18 133.651L332.28 126.071Z" fill="#DF8C7E"/>
<path d="M340.78 122.591C340.85 122.591 340.87 122.681 340.78 122.711C337.59 124.231 336.06 127.361 335.04 130.581C335.94 129.311 337.22 128.581 338.91 129.581C339 129.631 338.91 129.771 338.83 129.761C338.246 129.611 337.629 129.647 337.066 129.864C336.504 130.08 336.023 130.467 335.69 130.971C335.13 131.809 334.667 132.708 334.31 133.651C334.17 133.951 333.64 133.831 333.73 133.491C333.724 133.464 333.724 133.437 333.73 133.411C333.45 129.281 336.33 123.281 340.78 122.591Z" fill="#263238"/>
<path d="M335.05 134.351C335.064 134.61 335.155 134.858 335.311 135.066C335.467 135.273 335.681 135.429 335.926 135.515C336.17 135.6 336.435 135.611 336.686 135.546C336.937 135.482 337.163 135.343 337.336 135.15C337.508 134.956 337.62 134.716 337.655 134.459C337.691 134.202 337.65 133.94 337.537 133.707C337.424 133.474 337.244 133.279 337.02 133.148C336.796 133.017 336.539 132.955 336.28 132.971C336.108 132.98 335.94 133.022 335.785 133.097C335.63 133.171 335.491 133.276 335.377 133.404C335.263 133.532 335.175 133.682 335.119 133.844C335.062 134.007 335.039 134.179 335.05 134.351Z" fill="white"/>
<path d="M338.19 132.181C338.198 132.347 338.255 132.507 338.355 132.64C338.454 132.774 338.591 132.875 338.748 132.931C338.905 132.986 339.074 132.994 339.236 132.953C339.397 132.912 339.543 132.824 339.654 132.7C339.765 132.576 339.837 132.422 339.86 132.258C339.884 132.093 339.858 131.925 339.786 131.775C339.713 131.625 339.598 131.5 339.455 131.415C339.311 131.331 339.146 131.291 338.98 131.301C338.87 131.306 338.762 131.333 338.663 131.38C338.563 131.427 338.474 131.493 338.401 131.575C338.327 131.657 338.271 131.753 338.234 131.857C338.198 131.961 338.183 132.071 338.19 132.181Z" fill="white"/>
<path d="M247.191 186.756L232.668 190.13L243.114 235.092L257.638 231.718L247.191 186.756Z" fill="#C4C4C4"/>
<path d="M211.79 67.4106C199.656 70.2336 188.632 76.5906 180.11 85.678C171.589 94.7654 165.953 106.175 163.915 118.465C161.877 130.755 163.528 143.374 168.66 154.725C173.792 166.077 182.175 175.652 192.748 182.24C203.321 188.829 215.61 192.135 228.062 191.74C240.513 191.346 252.568 187.268 262.703 180.023C272.838 172.779 280.597 162.692 285 151.038C289.403 139.384 290.252 126.687 287.44 114.551C285.571 106.486 282.132 98.8692 277.318 92.1348C272.504 85.4005 266.41 79.6809 259.384 75.303C252.358 70.9251 244.539 67.9747 236.372 66.6205C228.206 65.2662 219.853 65.5347 211.79 67.4106ZM237.31 177.281C227.723 179.51 217.69 178.847 208.48 175.374C199.27 171.901 191.297 165.775 185.569 157.77C179.842 149.766 176.617 140.242 176.302 130.404C175.988 120.566 178.598 110.856 183.803 102.502C189.007 94.1478 196.573 87.5248 205.542 83.4709C214.511 79.4169 224.482 78.114 234.191 79.727C243.901 81.3401 252.915 85.7965 260.091 92.5327C267.268 99.2689 272.286 107.982 274.51 117.571C277.491 130.421 275.247 143.93 268.271 155.127C261.295 166.323 250.159 174.292 237.31 177.281Z" fill="#A6A6A6"/>
<path d="M252.147 218.994L242.407 221.258C239.034 222.041 236.935 225.411 237.718 228.784L250.177 282.406C250.96 285.779 254.33 287.878 257.703 287.094L267.444 284.831C270.817 284.047 272.916 280.677 272.132 277.305L259.674 223.683C258.89 220.31 255.52 218.211 252.147 218.994Z" fill="#263238"/>
<g opacity="0.3">
<path d="M274.51 117.551C276.733 127.135 276.064 137.164 272.588 146.368C269.112 155.572 262.984 163.539 254.98 169.261C246.977 174.983 237.456 178.204 227.622 178.515C217.788 178.827 208.082 176.216 199.732 171.012C191.382 165.808 184.763 158.245 180.711 149.279C176.659 140.313 175.357 130.347 176.968 120.641C178.58 110.935 183.034 101.925 189.766 94.7497C196.498 87.5746 205.206 82.5567 214.79 80.3306C221.155 78.8507 227.75 78.6397 234.197 79.7095C240.644 80.7794 246.817 83.1091 252.363 86.5657C257.909 90.0223 262.719 94.5378 266.52 99.8544C270.32 105.171 273.035 111.184 274.51 117.551Z" fill="white"/>
<path d="M275.73 131.571C274.996 144.668 269.121 156.946 259.384 165.735C249.647 174.525 236.834 179.116 223.73 178.511L275.73 131.571Z" fill="#EBEBEB"/>
<path d="M252.84 86.8806L181.61 151.171C179.838 147.64 178.495 143.91 177.61 140.061C176.574 135.65 176.156 131.116 176.37 126.591L228.96 79.1206C237.453 79.6203 245.676 82.2923 252.84 86.8806Z" fill="#EBEBEB"/>
<path d="M273.14 112.781L205.29 174.011C202.325 172.648 199.501 170.997 196.86 169.081L269.11 103.881C270.752 106.703 272.102 109.685 273.14 112.781Z" fill="#EBEBEB"/>
<path d="M258.31 90.9406L185.05 157.041C184.71 156.541 184.37 156.041 184.05 155.531L256.89 89.8006C257.39 90.1606 257.86 90.5306 258.31 90.9406Z" fill="#EBEBEB"/>
<path d="M212.37 80.9606L179.87 110.281C180.42 108.891 181.04 107.531 181.72 106.211L208.15 82.3506C209.52 81.8406 210.93 81.3706 212.37 80.9606Z" fill="#EBEBEB"/>
</g>
<path d="M190.73 137.411C190.725 137.344 190.725 137.277 190.73 137.211C190.55 136.211 190.86 138.161 190.73 137.511C190.6 136.861 190.53 135.971 190.47 135.201C190.24 132.485 190.24 129.756 190.47 127.041C190.47 126.651 190.54 126.271 190.57 125.891C190.57 125.771 190.46 126.791 190.57 125.981L190.66 125.281C190.78 124.381 190.93 123.481 191.11 122.591C191.489 120.628 192 118.694 192.64 116.801C192.79 116.351 192.96 115.901 193.12 115.451C193.33 114.841 192.84 116.121 193.17 115.321L193.5 114.531C193.93 113.531 194.4 112.531 194.9 111.531C195.4 110.531 196.05 109.461 196.68 108.471C196.98 108.011 197.28 107.561 197.59 107.111C198.12 106.341 197.34 107.421 197.75 106.881L198.34 106.101C200.161 103.811 202.197 101.702 204.42 99.8006C204.42 99.8006 204.88 99.4306 204.54 99.7106C204.2 99.9906 204.72 99.5606 204.78 99.5106L205.78 98.7206C206.45 98.2206 207.13 97.7206 207.83 97.2806C209.296 96.3005 210.811 95.396 212.37 94.5706C212.787 94.3079 213.149 93.9656 213.434 93.5631C213.72 93.1607 213.923 92.7059 214.033 92.2249C214.142 91.7439 214.156 91.2461 214.073 90.7597C213.99 90.2734 213.812 89.8082 213.55 89.3906C213.287 88.973 212.945 88.6112 212.542 88.3259C212.14 88.0406 211.685 87.8373 211.204 87.7277C210.723 87.6182 210.225 87.6044 209.739 87.6873C209.253 87.7701 208.787 87.9479 208.37 88.2106C198.49 93.4806 190.37 101.801 186.29 112.291C183.527 119.345 182.35 126.92 182.84 134.481C182.94 136.16 183.153 137.83 183.48 139.481C183.765 140.432 184.415 141.233 185.288 141.707C186.161 142.181 187.186 142.29 188.14 142.011C189.078 141.702 189.862 141.046 190.332 140.178C190.803 139.31 190.923 138.295 190.67 137.341L190.73 137.411Z" fill="white"/>
<path d="M194.05 148.051C194.257 148.748 194.252 149.491 194.037 150.186C193.822 150.881 193.405 151.497 192.84 151.955C192.275 152.413 191.586 152.694 190.862 152.761C190.138 152.829 189.409 152.68 188.77 152.333C188.13 151.987 187.607 151.458 187.267 150.815C186.928 150.171 186.786 149.442 186.861 148.718C186.936 147.994 187.224 147.309 187.688 146.749C188.153 146.189 188.773 145.779 189.47 145.571C189.933 145.431 190.42 145.384 190.902 145.434C191.383 145.483 191.85 145.627 192.276 145.857C192.702 146.088 193.078 146.4 193.382 146.777C193.687 147.153 193.913 147.586 194.05 148.051Z" fill="white"/>
<path d="M353.18 179.581C362.18 212.121 366.5 244.791 361.52 261.641C358.34 272.381 350.67 279.641 345.79 282.041C334.38 287.681 296.53 279.681 271.87 274.721C265.81 273.501 280.1 224.671 286.19 227.261C295.19 231.071 322.74 236.211 323.5 236.461C325.13 237.021 328.5 201.711 330.88 181.011C334.17 152.171 347.99 160.791 353.18 179.581Z" fill="#DF8C7E"/>
<path d="M224.48 217.961C221.8 222.331 225.28 226.331 225.28 226.331C222.995 227.473 221.183 229.38 220.16 231.721C218.55 235.921 224.43 240.291 224.43 240.291C222.308 241.968 220.743 244.248 219.94 246.831C218.8 251.011 224.11 256.261 224.11 256.261C223.013 258.878 222.896 261.803 223.78 264.501C226.43 271.611 237.78 273.941 244.98 275.501C252.18 277.061 274.06 274.701 278.28 274.681L288.63 228.551C288.63 228.551 258.32 212.401 249.63 211.781C242.24 211.281 227.49 213.061 224.48 217.961Z" fill="#DF8C7E"/>
<path d="M225.76 225.661C233.76 224.351 241.62 225.451 249.57 226.101C249.607 226.101 249.642 226.115 249.669 226.142C249.695 226.168 249.71 226.203 249.71 226.241C249.71 226.278 249.695 226.313 249.669 226.34C249.642 226.366 249.607 226.381 249.57 226.381C241.66 225.641 233.71 226.471 225.8 226.051C225.754 226.046 225.711 226.026 225.678 225.993C225.645 225.961 225.625 225.918 225.62 225.872C225.615 225.826 225.627 225.78 225.652 225.741C225.678 225.703 225.716 225.674 225.76 225.661Z" fill="#263238"/>
<path d="M224.72 239.721C226.554 239.593 228.397 239.71 230.2 240.071C232.126 240.324 234.05 240.611 235.97 240.931C239.816 241.597 243.643 242.334 247.45 243.141C247.62 243.141 247.61 243.441 247.45 243.411C243.61 242.781 239.77 242.211 235.92 241.741C233.99 241.501 232.06 241.291 230.12 241.081C228.284 241.006 226.463 240.728 224.69 240.251C224.635 240.229 224.589 240.19 224.557 240.141C224.526 240.091 224.511 240.033 224.514 239.975C224.517 239.916 224.539 239.86 224.576 239.815C224.613 239.769 224.663 239.736 224.72 239.721Z" fill="#263238"/>
<path d="M224.27 256.281C225.83 256.011 227.65 256.571 229.19 256.861C230.94 257.191 232.68 257.501 234.43 257.811C237.93 258.431 241.43 259.041 244.95 259.541C245.12 259.541 245.1 259.841 244.95 259.811C241.37 259.331 237.79 258.891 234.22 258.381C232.47 258.131 230.71 257.861 228.96 257.591C227.47 257.361 225.59 257.241 224.26 256.461C224.243 256.451 224.23 256.438 224.221 256.421C224.211 256.405 224.207 256.386 224.208 256.367C224.209 256.349 224.216 256.33 224.226 256.315C224.237 256.3 224.252 256.288 224.27 256.281Z" fill="#263238"/>
<path d="M234.36 213.181C230.73 213.651 226.57 214.451 224.22 217.541C223.134 218.851 222.599 220.533 222.73 222.231C222.937 223.816 223.737 225.263 224.97 226.281C223.519 226.748 222.23 227.615 221.25 228.783C220.27 229.95 219.639 231.371 219.43 232.881C219.369 233.637 219.465 234.397 219.711 235.114C219.957 235.832 220.348 236.491 220.86 237.051C221.36 237.641 221.93 238.161 222.48 238.701C223.03 239.241 223.64 239.701 224.21 240.171C223.594 240.652 223.015 241.18 222.48 241.751C221.88 242.327 221.34 242.964 220.87 243.651C219.897 245.011 219.347 246.629 219.29 248.301C219.373 249.962 219.951 251.56 220.95 252.891C221.762 254.266 222.907 255.414 224.28 256.231C224.297 256.239 224.317 256.241 224.335 256.236C224.354 256.231 224.37 256.22 224.381 256.204C224.392 256.188 224.397 256.169 224.395 256.15C224.393 256.131 224.384 256.114 224.37 256.101C223.291 255.115 222.376 253.964 221.66 252.691C220.795 251.332 220.321 249.761 220.29 248.151C220.422 246.624 220.938 245.155 221.79 243.881C222.214 243.189 222.674 242.522 223.17 241.881C223.664 241.356 224.125 240.802 224.55 240.221C224.55 240.221 223.36 238.961 222.94 238.421C222.52 237.881 222.11 237.301 221.73 236.711C220.925 235.591 220.568 234.21 220.73 232.841C220.966 231.562 221.547 230.373 222.41 229.401C223.25 228.401 224.34 227.611 225.22 226.631C225.252 226.579 225.272 226.521 225.281 226.461C225.289 226.401 225.286 226.339 225.27 226.281C223.27 223.161 223.52 220.201 225.66 217.891C226.75 216.77 228.026 215.847 229.43 215.161C231.046 214.426 232.718 213.821 234.43 213.351C234.5 213.341 234.47 213.171 234.36 213.181Z" fill="#263238"/>
<path d="M300.66 280.371C298.53 279.711 296.28 279.371 294.1 278.891C291.92 278.411 289.72 277.961 287.52 277.521C285.32 277.081 283.03 276.641 280.79 276.221C278.55 275.801 276.46 275.331 274.28 275.071C272.175 274.867 270.054 274.914 267.96 275.211C265.847 275.451 263.727 275.621 261.6 275.721C257.315 275.927 253.022 275.834 248.75 275.441C243.917 274.992 239.131 274.139 234.44 272.891C234.34 272.891 234.31 273.011 234.44 273.041C242.572 275.755 251.097 277.107 259.67 277.041C261.79 277.041 263.92 276.911 266.03 276.701C268.138 276.401 270.262 276.221 272.39 276.161C274.641 276.309 276.875 276.644 279.07 277.161C281.28 277.571 283.48 277.991 285.69 278.381C288.19 278.821 290.69 279.271 293.2 279.661C295.71 280.051 298.2 280.611 300.66 280.791C300.84 280.751 300.85 280.421 300.66 280.371Z" fill="#263238"/>
<path d="M331.72 238.481C328.52 237.391 325.14 236.711 321.85 235.921C318.56 235.131 315.23 234.371 311.92 233.621C305.6 232.191 299.2 230.981 292.92 229.231C291.27 228.771 289.64 228.231 288.03 227.691C287.22 227.401 286.43 227.081 285.64 226.691C284.85 226.301 283.94 226.061 283.16 225.691C283.07 225.631 283 225.771 283.09 225.831C283.72 226.221 284.3 226.691 284.95 227.071C285.6 227.451 286.39 227.831 287.13 228.171C288.482 228.789 289.868 229.333 291.28 229.801C294.22 230.801 297.28 231.491 300.28 232.191C306.88 233.701 313.49 235.191 320.11 236.621C321.97 237.021 323.84 237.421 325.71 237.791C327.58 238.161 329.62 238.621 331.6 238.841C331.647 238.853 331.697 238.848 331.74 238.825C331.783 238.802 331.815 238.764 331.83 238.717C331.846 238.671 331.843 238.621 331.822 238.577C331.802 238.533 331.765 238.498 331.72 238.481Z" fill="#263238"/>
<path d="M321.31 226.381L367.05 232.601C367.05 232.601 358.69 185.051 349.8 169.301C341.03 153.761 331.35 164.031 327.66 182.831C323.52 203.671 321.31 226.381 321.31 226.381Z" fill="#37474F"/>
<path d="M363.62 225.711C362.34 225.411 361.03 225.221 359.75 224.941C358.47 224.661 357.24 224.471 355.98 224.271C353.41 223.871 350.83 223.511 348.25 223.161C343.17 222.461 338.1 221.691 333 221.161C330.1 220.841 327.21 220.411 324.31 220.161C324.289 220.161 324.268 220.169 324.253 220.184C324.238 220.199 324.23 220.219 324.23 220.241C324.23 220.262 324.238 220.282 324.253 220.297C324.268 220.312 324.289 220.321 324.31 220.321C329.36 221.501 334.51 222.381 339.63 223.211C344.75 224.041 349.79 224.821 354.89 225.381C356.32 225.531 357.75 225.721 359.19 225.791C360.63 225.861 362.14 225.991 363.61 226.021C363.651 226.022 363.691 226.007 363.721 225.979C363.751 225.951 363.769 225.912 363.77 225.871C363.771 225.829 363.756 225.79 363.728 225.76C363.7 225.73 363.661 225.712 363.62 225.711Z" fill="#263238"/>
<path d="M388.68 53.1906C388.093 58.8161 385.954 64.1678 382.502 68.6485C379.05 73.1291 374.421 76.5624 369.132 78.5652C363.842 80.568 358.1 81.0615 352.546 79.9906C346.993 78.9197 341.846 76.3266 337.68 72.5006L322.4 74.7506L330.05 61.5406C328.296 57.241 327.545 52.5981 327.855 47.9647C328.165 43.3314 329.527 38.8298 331.839 34.8022C334.15 30.7746 337.349 27.3271 341.193 24.7219C345.037 22.1168 349.425 20.4225 354.022 19.768C358.619 19.1134 363.305 19.5159 367.724 20.9448C372.142 22.3736 376.177 24.7912 379.52 28.0138C382.864 31.2363 385.428 35.1788 387.019 39.5415C388.61 43.9043 389.185 48.5723 388.7 53.1906H388.68Z" fill="white"/>
<path d="M388.68 53.1906C388.095 58.8203 385.963 64.1781 382.52 68.6706C380.829 70.9318 378.806 72.9244 376.52 74.5806C371.977 77.9909 366.584 80.0872 360.93 80.6406C359.52 80.7723 358.103 80.799 356.69 80.7206C355.274 80.6895 353.862 80.5423 352.47 80.2806C346.839 79.2492 341.607 76.6695 337.36 72.8306L337.72 72.9406L322.47 75.2806L321.36 75.4506L321.92 74.4506L329.52 61.2206V61.7406C327.299 56.2762 326.689 50.2907 327.76 44.4905C328.831 38.6903 331.54 33.3177 335.565 29.007C339.591 24.6963 344.766 21.6274 350.48 20.1626C356.193 18.6979 362.207 18.8984 367.81 20.7406C372.222 22.2398 376.244 24.7067 379.58 27.9606C382.909 31.2016 385.459 35.1569 387.035 39.5277C388.612 43.8985 389.174 48.5705 388.68 53.1906ZM388.68 53.1906C389.162 48.596 388.583 43.9521 386.988 39.6162C385.394 35.2803 382.826 31.3681 379.482 28.1806C376.138 24.9931 372.107 22.6152 367.7 21.23C363.292 19.8448 358.626 19.4892 354.06 20.1906C349.527 20.8732 345.21 22.5835 341.44 25.1906C337.705 27.8202 334.59 31.2329 332.31 35.1906C330.058 39.1491 328.731 43.5662 328.43 48.1106C328.153 52.6484 328.887 57.1912 330.58 61.4106L330.69 61.6906L330.55 61.9406L322.86 75.1206L322.31 74.3106L337.6 72.1706H337.81L337.96 72.3106C342.044 76.128 347.11 78.7351 352.59 79.8406C353.954 80.1205 355.338 80.291 356.73 80.3506C358.122 80.4456 359.518 80.4456 360.91 80.3506C363.697 80.1333 366.44 79.5274 369.06 78.5506C371.701 77.5896 374.185 76.2415 376.43 74.5506C377.559 73.7231 378.635 72.8246 379.65 71.8606C380.64 70.8679 381.568 69.8159 382.43 68.7106C385.911 64.2162 388.075 58.843 388.68 53.1906Z" fill="#263238"/>
<path d="M343.38 64.2806C343.361 63.875 343.424 63.4698 343.567 63.0895C343.709 62.7092 343.927 62.3618 344.207 62.0682C344.488 61.7746 344.825 61.541 345.198 61.3816C345.572 61.2221 345.974 61.1402 346.38 61.1406C347.213 61.1406 348.011 61.4714 348.6 62.0603C349.189 62.6491 349.52 63.4478 349.52 64.2806C349.52 65.1134 349.189 65.9121 348.6 66.5009C348.011 67.0898 347.213 67.4206 346.38 67.4206C345.974 67.421 345.572 67.3391 345.198 67.1796C344.825 67.0202 344.488 66.7866 344.207 66.493C343.927 66.1994 343.709 65.852 343.567 65.4717C343.424 65.0914 343.361 64.6862 343.38 64.2806ZM344.65 57.0406L343.94 32.7306H348.8L348.05 57.0106L344.65 57.0406Z" fill="#F9F0A6"/>
<path d="M355.05 64.2806C355.031 63.875 355.095 63.4698 355.237 63.0895C355.379 62.7092 355.597 62.3618 355.878 62.0682C356.158 61.7746 356.495 61.541 356.869 61.3816C357.242 61.2221 357.644 61.1402 358.05 61.1406C358.883 61.1406 359.681 61.4714 360.27 62.0603C360.859 62.6491 361.19 63.4478 361.19 64.2806C361.19 65.1134 360.859 65.9121 360.27 66.5009C359.681 67.0898 358.883 67.4206 358.05 67.4206C357.644 67.421 357.242 67.3391 356.869 67.1796C356.495 67.0202 356.158 66.7866 355.878 66.493C355.597 66.1994 355.379 65.852 355.237 65.4717C355.095 65.0914 355.031 64.6862 355.05 64.2806ZM356.32 57.0406L355.61 32.7306H360.47L359.76 57.0406H356.32Z" fill="#F9F0A6"/>
<path d="M366.68 64.2806C366.661 63.875 366.724 63.4698 366.867 63.0895C367.009 62.7092 367.227 62.3618 367.507 62.0682C367.788 61.7746 368.125 61.541 368.498 61.3816C368.872 61.2221 369.274 61.1402 369.68 61.1406C370.513 61.1406 371.311 61.4714 371.9 62.0603C372.489 62.6491 372.82 63.4478 372.82 64.2806C372.82 65.1134 372.489 65.9121 371.9 66.5009C371.311 67.0898 370.513 67.4206 369.68 67.4206C369.274 67.421 368.872 67.3391 368.498 67.1796C368.125 67.0202 367.788 66.7866 367.507 66.493C367.227 66.1994 367.009 65.852 366.867 65.4717C366.724 65.0914 366.661 64.6862 366.68 64.2806ZM367.95 57.0406L367.24 32.7306H372.1L371.39 57.0406H367.95Z" fill="#F9F0A6"/>
</g>
<defs>
<clipPath id="clip0_428_70">
<rect width="452" height="354" fill="white"/>
</clipPath>
</defs>
</svg>
