
<svg width="500" height="500" viewBox="0 0 500 500" fill="none" xmlns="http://www.w3.org/2000/svg">
<path d="M464.5 113.47C462.913 110.803 461.246 108.17 459.5 105.57C436.33 71.22 396.44 47.73 357.2 37.11C339.984 32.5303 322.297 29.9499 304.49 29.42C187.87 25.42 141.42 117.42 102.88 141.09C64.3398 164.76 4.99981 205.33 8.99981 290.32C12.9998 375.31 74.2198 455.32 192.81 460.32C311.4 465.32 319.31 411.9 385.52 392.13C429.34 379.05 460.52 334.87 475.72 294.04C496.5 238.38 495.52 166.11 464.5 113.47Z" fill="#F9F0A6"/>
<path opacity="0.7" d="M464.5 113.47C462.913 110.803 461.246 108.17 459.5 105.57C436.33 71.22 396.44 47.73 357.2 37.11C339.984 32.5303 322.297 29.9499 304.49 29.42C187.87 25.42 141.42 117.42 102.88 141.09C64.3398 164.76 4.99981 205.33 8.99981 290.32C12.9998 375.31 74.2198 455.32 192.81 460.32C311.4 465.32 319.31 411.9 385.52 392.13C429.34 379.05 460.52 334.87 475.72 294.04C496.5 238.38 495.52 166.11 464.5 113.47Z" fill="white"/>
<path d="M438.56 121.49V118.2H377.7V69.4199H375.72V118.2H315.29V121.49H375.72V166.65H315.29V169.95H375.72V215.11H315.29V218.4H375.72V265.85H377.7V218.4H438.56V215.11H377.7V169.95H438.56V166.65H377.7V121.49H438.56Z" fill="#263238" stroke="#263238" stroke-miterlimit="10"/>
<path d="M311.12 65.46V271.13H442.3V65.46H311.12ZM437.87 264.18H315.55V72.4H437.87V264.18Z" fill="#263238" stroke="#263238" stroke-miterlimit="10"/>
<path d="M254 323.92C254.005 323.908 254.007 323.894 254.007 323.881C254.006 323.868 254.003 323.855 253.997 323.842C253.992 323.83 253.984 323.819 253.974 323.81C253.964 323.801 253.953 323.795 253.94 323.79C253.928 323.785 253.914 323.783 253.901 323.784C253.888 323.784 253.875 323.787 253.862 323.793C253.85 323.798 253.839 323.806 253.83 323.816C253.821 323.826 253.814 323.837 253.81 323.85C250.873 330.886 248.551 338.163 246.87 345.6C245.155 353.038 243.863 360.566 243 368.15L242.46 373.85C242.38 374.8 242.27 375.75 242.2 376.7L242.05 379.56C241.97 381.47 241.85 383.38 241.79 385.29L241.85 391.02L241.91 393.88C241.91 394.83 242.02 395.79 242.09 396.74C242.23 398.64 242.35 400.55 242.52 402.45C242.89 406.25 243.46 410.02 244.04 413.79C244.046 413.812 244.059 413.832 244.077 413.846C244.095 413.86 244.117 413.869 244.14 413.87C244.154 413.872 244.167 413.87 244.18 413.866C244.193 413.861 244.205 413.854 244.214 413.844C244.224 413.835 244.231 413.823 244.236 413.81C244.24 413.797 244.242 413.784 244.24 413.77C244.24 411.86 244.15 409.97 244.11 408.06C244.07 406.15 243.89 404.28 243.92 402.38C243.95 400.48 243.92 398.58 243.86 396.69L243.8 393.85V391.01V385.33L243.95 379.66L244.01 376.82C244.01 375.87 244.12 374.93 244.17 373.98L244.52 368.31C245.165 360.759 246.237 353.25 247.73 345.82C249.184 338.353 251.282 331.025 254 323.92Z" fill="#263238"/>
<path d="M254.81 353.6C254.817 353.576 254.814 353.551 254.803 353.528C254.792 353.506 254.773 353.489 254.75 353.48C254.738 353.475 254.725 353.473 254.711 353.473C254.698 353.474 254.685 353.477 254.673 353.483C254.66 353.488 254.65 353.496 254.641 353.506C254.632 353.516 254.625 353.527 254.62 353.54C251.379 363.012 249.222 372.822 248.19 382.78C247.69 387.78 247.13 392.72 247.06 397.72C246.941 402.726 247.118 407.735 247.59 412.72C247.596 412.741 247.607 412.759 247.623 412.773C247.639 412.788 247.659 412.797 247.68 412.8C247.693 412.803 247.706 412.803 247.719 412.801C247.731 412.798 247.743 412.793 247.754 412.785C247.764 412.778 247.773 412.768 247.779 412.757C247.785 412.745 247.789 412.733 247.79 412.72C248.37 407.72 248.72 402.78 249.07 397.82C249.42 392.86 249.47 387.89 249.79 382.93C250.471 373.017 252.146 363.198 254.79 353.62L254.81 353.6Z" fill="#263238"/>
<path d="M271.27 364.05C271.251 364.032 271.226 364.021 271.2 364.021C271.174 364.021 271.149 364.032 271.13 364.05C267.015 366.692 263.309 369.923 260.13 373.64C258.534 375.518 257.095 377.525 255.83 379.64L254.95 381.31L254.25 383.05C254.016 383.621 253.815 384.205 253.65 384.8C253.47 385.4 253.27 385.98 253.11 386.58C251.853 391.328 251.092 396.195 250.84 401.1C250.594 405.98 250.775 410.872 251.38 415.72C251.386 415.742 251.399 415.762 251.417 415.776C251.435 415.79 251.457 415.799 251.48 415.8C251.493 415.801 251.505 415.8 251.518 415.796C251.53 415.792 251.541 415.786 251.55 415.778C251.56 415.769 251.567 415.759 251.572 415.747C251.577 415.735 251.58 415.723 251.58 415.71L252.84 401.24C253.181 396.453 253.792 391.689 254.67 386.97C254.8 386.38 254.97 385.82 255.12 385.24C255.255 384.661 255.422 384.09 255.62 383.53L256.21 381.86L256.97 380.28C258.115 378.174 259.433 376.167 260.91 374.28C263.847 370.446 267.327 367.061 271.24 364.23C271.256 364.223 271.271 364.211 271.282 364.197C271.293 364.183 271.3 364.166 271.303 364.148C271.306 364.13 271.304 364.112 271.299 364.095C271.293 364.078 271.283 364.062 271.27 364.05Z" fill="#263238"/>
<path d="M263.3 382.64C261.165 384.198 259.447 386.259 258.3 388.64C257.091 390.984 256.148 393.456 255.49 396.01C255.3 396.64 255.14 397.28 255 397.92L254.55 399.84C254.312 401.133 254.149 402.439 254.06 403.75C254.06 405.07 254.01 406.38 254.06 407.69C254.155 409.002 254.326 410.308 254.57 411.6C254.576 411.619 254.587 411.635 254.601 411.649C254.615 411.663 254.631 411.674 254.65 411.68C254.663 411.683 254.677 411.683 254.69 411.681C254.703 411.678 254.716 411.673 254.727 411.666C254.738 411.658 254.748 411.649 254.755 411.637C254.762 411.626 254.767 411.613 254.77 411.6C255.073 410.33 255.307 409.045 255.47 407.75C255.67 406.47 255.87 405.21 256.02 403.94C256.17 402.67 256.37 401.42 256.47 400.15C256.57 398.88 256.74 397.61 257.02 396.37C257.459 393.865 258.177 391.416 259.16 389.07C260.046 386.678 261.485 384.53 263.36 382.8C263.369 382.792 263.376 382.782 263.38 382.77C263.385 382.759 263.388 382.747 263.388 382.735C263.388 382.723 263.385 382.711 263.38 382.7C263.376 382.689 263.369 382.679 263.36 382.67C263.343 382.654 263.322 382.644 263.3 382.64Z" fill="#263238"/>
<path d="M240.22 397.14C239.68 390.72 238.62 384.35 237.62 378C236.62 371.65 235.5 365.3 234.34 359C233.18 352.7 231.88 346.37 230.51 340.09C230.515 340.075 230.516 340.059 230.514 340.043C230.511 340.028 230.505 340.013 230.496 340C230.487 339.987 230.474 339.977 230.46 339.97C230.446 339.963 230.431 339.959 230.415 339.959C230.399 339.959 230.384 339.963 230.369 339.97C230.355 339.977 230.343 339.987 230.334 340C230.325 340.013 230.319 340.028 230.316 340.043C230.314 340.059 230.315 340.075 230.32 340.09C231.42 346.43 232.41 352.78 233.32 359.14C234.23 365.5 235.19 371.85 236 378.22C236.81 384.59 237.4 390.99 238.19 397.35L240.54 416.48C240.546 416.503 240.558 416.524 240.576 416.54C240.594 416.556 240.616 416.567 240.64 416.57C240.667 416.57 240.694 416.56 240.714 416.541C240.735 416.523 240.747 416.498 240.75 416.47C240.82 414.86 240.82 413.25 240.86 411.63C240.9 410.01 240.79 408.41 240.77 406.8C240.74 403.57 240.46 400.36 240.22 397.14Z" fill="#263238"/>
<path d="M236.37 397.05C236.02 394.5 235.56 391.97 235.07 389.45L234.17 385.7C233.87 384.45 233.59 383.2 233.23 381.96C231.947 376.977 230.303 372.094 228.31 367.35L227.54 365.58L226.69 363.85C226.14 362.69 225.49 361.58 224.86 360.45C223.597 358.204 222.037 356.138 220.22 354.31C220.212 354.301 220.202 354.294 220.19 354.29C220.179 354.285 220.167 354.282 220.155 354.282C220.143 354.282 220.131 354.285 220.12 354.29C220.109 354.294 220.099 354.301 220.09 354.31C220.072 354.329 220.062 354.354 220.062 354.38C220.062 354.406 220.072 354.431 220.09 354.45C221.782 356.345 223.209 358.461 224.33 360.74C224.89 361.88 225.48 363 225.96 364.18L226.72 365.93L227.39 367.72C229.167 372.481 230.597 377.363 231.67 382.33C232.25 384.8 232.67 387.33 233.12 389.82L233.72 393.58C233.94 394.83 234.21 396.08 234.38 397.34C234.78 399.85 235.25 402.34 235.68 404.87C236.11 407.4 236.53 409.87 237.07 412.42C237.074 412.443 237.085 412.463 237.101 412.479C237.117 412.496 237.138 412.506 237.16 412.51C237.188 412.51 237.214 412.5 237.235 412.481C237.255 412.463 237.268 412.438 237.27 412.41C237.27 409.843 237.21 407.277 237.09 404.71C236.94 402.15 236.63 399.6 236.37 397.05Z" fill="#263238"/>
<path d="M231.05 397.38C229.86 394 228.48 390.7 226.98 387.47C225.468 384.241 223.758 381.109 221.86 378.09C221.855 378.076 221.847 378.064 221.836 378.054C221.826 378.044 221.813 378.036 221.8 378.031C221.786 378.027 221.771 378.025 221.757 378.026C221.742 378.028 221.728 378.032 221.716 378.04C221.703 378.047 221.692 378.057 221.684 378.069C221.676 378.081 221.67 378.094 221.668 378.109C221.665 378.123 221.666 378.138 221.67 378.152C221.674 378.166 221.681 378.179 221.69 378.19C223.341 381.325 224.8 384.558 226.06 387.87C227.36 391.15 228.54 394.49 229.52 397.87C230.5 401.25 231.25 404.7 232.15 408.1C233.05 411.5 233.86 414.93 234.91 418.37C234.916 418.389 234.928 418.407 234.944 418.419C234.96 418.432 234.98 418.439 235 418.44C235.027 418.44 235.054 418.43 235.074 418.411C235.095 418.393 235.107 418.367 235.11 418.34C235.148 414.752 234.812 411.169 234.11 407.65C233.367 404.15 232.344 400.716 231.05 397.38Z" fill="#263238"/>
<path d="M230.83 408.61C230.174 406.505 229.221 404.505 228 402.67C226.863 400.789 225.477 399.07 223.88 397.56C223.065 396.82 222.189 396.151 221.26 395.56C220.333 394.965 219.322 394.513 218.26 394.22C218.238 394.216 218.214 394.22 218.194 394.231C218.174 394.242 218.159 394.259 218.15 394.28C218.134 394.298 218.126 394.321 218.126 394.345C218.126 394.369 218.134 394.392 218.15 394.41C220.045 395.324 221.726 396.629 223.08 398.24C224.448 399.815 225.601 401.563 226.51 403.44C227.51 405.28 227.99 407.32 228.84 409.23C229.21 410.23 229.58 411.18 230.02 412.16C230.379 413.189 230.81 414.192 231.31 415.16C231.32 415.175 231.333 415.188 231.349 415.196C231.364 415.205 231.382 415.21 231.4 415.21C231.413 415.211 231.425 415.21 231.438 415.206C231.45 415.202 231.461 415.196 231.47 415.188C231.48 415.179 231.487 415.169 231.492 415.157C231.497 415.145 231.5 415.133 231.5 415.12C231.54 414.022 231.5 412.922 231.38 411.83C231.31 410.74 231.09 409.67 230.83 408.61Z" fill="#263238"/>
<path d="M231.23 349.25C228.014 348.361 225.103 346.608 222.811 344.183C220.52 341.757 218.936 338.751 218.23 335.49C215.8 324.15 223.63 329.01 216.61 311.19C209.59 293.37 211.21 289.32 213.61 284.19C216.01 279.06 217.39 280.68 219.55 287.43C221.71 294.18 229.55 304.71 232.55 324.43C235.55 344.15 231.23 349.25 231.23 349.25Z" fill="#F9F0A6"/>
<path d="M252 330.09C252 330.09 245 327.66 244.71 314.43C244.42 301.2 249.84 303.9 250.65 287.43C251.46 270.96 252.54 259.35 255.51 259.08C258.48 258.81 266.31 267.18 269.01 285.54C271.71 303.9 265.5 316.05 260.1 321.45C254.7 326.85 252 330.09 252 330.09Z" fill="#F9F0A6"/>
<path d="M227.45 365.18C227.45 365.18 225.83 355.46 222.59 350.87C219.35 346.28 212.33 342.23 207.74 333.33C203.15 324.43 198.02 320.1 198.29 332.79C198.56 345.48 204.23 351.95 211.29 356.27C218.35 360.59 227.45 365.18 227.45 365.18Z" fill="#F9F0A6"/>
<path d="M224.48 381.92C224.48 381.92 218 369.5 208.55 360.32C199.1 351.14 191.55 346.55 194.24 351.14C196.93 355.73 200.18 355.46 204.77 363.56C209.36 371.66 208.01 377.56 214.49 382.19C220.97 386.82 224.48 381.92 224.48 381.92Z" fill="#F9F0A6"/>
<path d="M223.67 397.85C223.4 397.04 223.13 391.1 213.95 386.24C204.77 381.38 196.13 383.24 197.21 385.7C198.29 388.16 203.96 392.18 209.63 394.61C215.3 397.04 223.67 397.85 223.67 397.85Z" fill="#F9F0A6"/>
<path d="M251.47 365.72C251.47 365.72 247.42 360.59 249.58 349.79C251.74 338.99 256.58 341.69 262 336.02C267.42 330.35 266.32 329.55 271.72 323.61C277.12 317.67 281.98 314.43 284.14 316.86C286.3 319.29 283.06 326.86 279.82 331.17C276.58 335.48 271.45 337.64 269 343C266.55 348.36 267.65 357 261.44 361.09C255.23 365.18 251.47 365.72 251.47 365.72Z" fill="#F9F0A6"/>
<path d="M265 368.69C265 368.69 274.72 357.62 281.74 349.52C288.76 341.42 291.46 335.22 291.74 340.61C292.02 346 294.17 350.33 288.5 357.35C282.83 364.37 265 368.69 265 368.69Z" fill="#F9F0A6"/>
<path d="M259.84 386.51C259.84 386.51 259.57 382.19 274.96 372.2C290.35 362.21 296.83 360.32 295.21 364.37C293.59 368.42 286.84 372.47 279.55 379.76C272.26 387.05 259.84 386.51 259.84 386.51Z" fill="#F9F0A6"/>
<path d="M231.87 348.1C231.87 348.1 228.26 328.74 224.48 314.97C220.7 301.2 218.27 292.83 218.27 292.83" stroke="#263238" stroke-linecap="round" stroke-linejoin="round"/>
<path d="M251.39 330.29C251.39 330.29 257.95 309.29 260.11 296.61C262.27 283.93 259.84 274.47 258.76 268.8" stroke="#263238" stroke-linecap="round" stroke-linejoin="round"/>
<path d="M226.6 364.78C223.692 359.779 220.364 355.035 216.65 350.6C210.71 343.6 206.12 339.8 203.42 333.06" stroke="#263238" stroke-linecap="round" stroke-linejoin="round"/>
<path d="M251.47 365.72C251.47 365.72 253.63 352.72 258.76 346.01C263.89 339.3 274.15 328.74 278.2 322.01" stroke="#263238" stroke-linecap="round" stroke-linejoin="round"/>
<path d="M223 397.55C223 397.55 213.92 391.64 207.44 388.4" stroke="#263238" stroke-linecap="round" stroke-linejoin="round"/>
<path d="M252.89 454.81H234.13L224.75 407.84H262.27L252.89 454.81Z" fill="#263238" stroke="#263238" stroke-linecap="round" stroke-linejoin="round"/>
<path d="M64.8003 454.81H489.98" stroke="#263238" stroke-miterlimit="10"/>
<path d="M31.1802 454.81H57.5502" stroke="#263238" stroke-miterlimit="10"/>
<path d="M216.14 167V135.5H213.29V95.19C213.291 91.9258 212.65 88.6933 211.401 85.6772C210.153 82.6611 208.323 79.9205 206.015 77.6119C203.708 75.3033 200.968 73.472 197.952 72.2225C194.936 70.973 191.704 70.33 188.44 70.33H54.9201C48.3268 70.33 42.0035 72.9491 37.3414 77.6113C32.6792 82.2734 30.0601 88.5967 30.0601 95.19V412.62C30.0601 419.213 32.6792 425.536 37.3414 430.199C42.0035 434.861 48.3268 437.48 54.9201 437.48H188.44C191.704 437.48 194.936 436.837 197.952 435.587C200.968 434.338 203.708 432.507 206.015 430.198C208.323 427.889 210.153 425.149 211.401 422.133C212.65 419.117 213.291 415.884 213.29 412.62V193.85H216.14V175.24H213.29V167H216.14Z" fill="#707070" stroke="#263238" stroke-linejoin="round"/>
<path d="M184.08 434.05H59.2699C52.2868 434.05 45.5897 431.276 40.6518 426.338C35.714 421.4 32.9399 414.703 32.9399 407.72V100.09C32.9399 85.5399 40.3999 73.75 59.2699 73.75H184.08C201.39 73.52 210.42 85.5399 210.42 100.09V407.72C210.42 411.178 209.739 414.603 208.415 417.798C207.091 420.993 205.151 423.896 202.705 426.342C200.259 428.787 197.355 430.726 194.159 432.049C190.963 433.371 187.538 434.051 184.08 434.05Z" fill="#263238" stroke="#263238" stroke-linejoin="round"/>
<path d="M131.34 77.8L131.29 77.99C129.83 83.43 126.47 86.99 122.75 86.99H120.61C116.89 86.99 113.53 83.47 112.07 77.99V77.8L59.9902 77.62C57.1066 77.6108 54.2495 78.1706 51.5826 79.2675C48.9157 80.3643 46.4914 81.9766 44.4487 84.0119C42.4059 86.0472 40.7848 88.4656 39.6783 91.1284C38.5717 93.7913 38.0015 96.6463 38.0002 99.53L37.9302 404.47C37.9302 418.68 49.0502 430.2 62.7802 430.2H180.62C194.35 430.2 205.48 418.68 205.48 404.47V97.34C205.48 92.3388 203.509 87.5391 199.993 83.9821C196.477 80.4252 191.701 78.3979 186.7 78.34L131.34 77.8Z" fill="white" stroke="#263238" stroke-miterlimit="10"/>
<path d="M205.46 102.88V97.34C205.46 92.3387 203.489 87.539 199.973 83.9821C196.457 80.4252 191.681 78.3979 186.68 78.34L131.34 77.77L131.29 77.96C129.83 83.4 126.47 86.96 122.75 86.96H120.61C116.89 86.96 113.53 83.44 112.07 77.96V77.77L59.99 77.59C57.1039 77.5807 54.2443 78.1416 51.5755 79.2403C48.9066 80.339 46.481 81.9539 44.4379 83.9924C42.3947 86.0309 40.7743 88.4529 39.6695 91.1192C38.5647 93.7855 37.9974 96.6438 38 99.53V102.88H205.46Z" fill="#DBDBDB" stroke="#263238" stroke-miterlimit="10"/>
<path d="M123.5 77.2C123.5 76.7367 123.362 76.2839 123.105 75.8989C122.847 75.5139 122.481 75.214 122.053 75.0371C121.625 74.8603 121.154 74.8146 120.7 74.9057C120.245 74.9968 119.829 75.2206 119.502 75.5489C119.175 75.8772 118.953 76.295 118.864 76.7496C118.774 77.2042 118.822 77.675 119.001 78.1024C119.179 78.5298 119.481 78.8946 119.867 79.1505C120.253 79.4064 120.707 79.5419 121.17 79.54C121.477 79.54 121.78 79.4794 122.064 79.3617C122.347 79.2439 122.604 79.0714 122.821 78.854C123.037 78.6366 123.209 78.3785 123.325 78.0947C123.442 77.8108 123.501 77.5068 123.5 77.2Z" fill="#707070"/>
<path d="M54.3999 83.1399C54.3999 85.5099 51.7499 86.3599 51.7399 88.1399V88.2599H54.3099V89.0499H50.8799V88.3999C50.8799 85.8699 53.5299 85.3999 53.5299 83.1799C53.5299 82.3699 53.2599 81.9499 52.6099 81.9499C51.9599 81.9499 51.6899 82.4099 51.6899 83.0999V83.7899H50.8799V83.1599C50.8799 81.9599 51.4199 81.1599 52.6299 81.1599C53.8399 81.1599 54.3999 81.9999 54.3999 83.1399Z" fill="#263238"/>
<path d="M58.6902 83.13V83.33C58.7239 83.6723 58.6444 84.0162 58.4637 84.3089C58.2831 84.6015 58.0113 84.8268 57.6902 84.95C58.0133 85.0703 58.2871 85.295 58.4682 85.5884C58.6493 85.8818 58.7274 86.2272 58.6902 86.57V87.17C58.6902 88.37 58.1302 89.17 56.9202 89.17C55.7102 89.17 55.1602 88.39 55.1602 87.17V86.64H56.0002V87.23C56.0002 87.93 56.2902 88.36 56.9202 88.36C57.5502 88.36 57.8302 87.94 57.8302 87.15V86.55C57.8302 85.77 57.5102 85.4 56.8302 85.38H56.3602V84.6H56.8702C57.0063 84.6015 57.1412 84.5734 57.2654 84.5177C57.3897 84.462 57.5003 84.3799 57.5897 84.2772C57.6791 84.1745 57.7451 84.0536 57.7832 83.9228C57.8212 83.7921 57.8304 83.6547 57.8102 83.52V83.17C57.8102 82.36 57.5302 81.95 56.9002 81.95C56.2702 81.95 55.9802 82.38 55.9802 83.09V83.49H55.1602V83.13C55.1602 81.94 55.7202 81.13 56.9202 81.13C58.1202 81.13 58.6902 81.94 58.6902 83.13Z" fill="#263238"/>
<path d="M60.38 83.73V84.81H59.54V83.73H60.38ZM60.38 87.99V89.07H59.54V88L60.38 87.99Z" fill="#263238"/>
<path d="M62.1402 84.43C62.2563 84.2242 62.427 84.0546 62.6335 83.9399C62.84 83.8252 63.0742 83.7698 63.3102 83.78C64.3102 83.78 64.7602 84.52 64.7602 85.64V87.17C64.7602 88.37 64.1902 89.17 63.0002 89.17C61.8102 89.17 61.2402 88.39 61.2402 87.17V86.65H62.0502V87.23C62.0502 87.93 62.3502 88.36 62.9702 88.36C63.5902 88.36 63.8902 87.93 63.8902 87.23V85.71C63.8902 85 63.6002 84.58 62.9702 84.58C62.8566 84.5746 62.7431 84.5923 62.6365 84.6321C62.5299 84.6719 62.4325 84.7329 62.3502 84.8114C62.2679 84.89 62.2025 84.9844 62.1578 85.089C62.1131 85.1936 62.0901 85.3062 62.0902 85.42V85.59H61.2702L61.4802 81.24H64.5702V82H62.2702L62.1402 84.43Z" fill="#263238"/>
<path d="M69.12 83.12V83.27H68.3V83.07C68.3 82.36 68.01 81.95 67.37 81.95C66.73 81.95 66.37 82.37 66.37 83.21V85C66.4606 84.7423 66.6325 84.5211 66.8597 84.3696C67.087 84.218 67.3573 84.1445 67.63 84.16C68.63 84.16 69.09 84.89 69.09 86.02V87.2C69.09 88.4 68.5 89.2 67.3 89.2C66.1 89.2 65.5 88.42 65.5 87.2V83.2C65.5 81.96 66.06 81.2 67.3 81.2C68.54 81.2 69.12 81.92 69.12 83.12ZM66.42 86.05V87.23C66.42 87.93 66.71 88.36 67.35 88.36C67.99 88.36 68.28 87.93 68.28 87.23V86.05C68.28 85.35 67.98 84.92 67.35 84.92C66.72 84.92 66.42 85.35 66.42 86.05Z" fill="#263238"/>
<path d="M154.62 83.47H152.41V89H154.62V83.47Z" fill="#263238"/>
<path d="M157.57 82.36H155.36V89H157.57V82.36Z" fill="#263238"/>
<path d="M160.52 81.5699H158.31V88.9899H160.52V81.5699Z" fill="#263238"/>
<path d="M163.46 80.2H161.25V88.99H163.46V80.2Z" fill="#263238"/>
<path d="M190.83 88.84H177.56V80.73H190.83V88.84ZM178.3 88.11H190.09V81.47H178.3V88.11Z" fill="#263238"/>
<path d="M186.41 82.2699H179.41V87.2999H186.41V82.2699Z" fill="#263238"/>
<path d="M192.04 83.83H190.37V85.74H192.04V83.83Z" fill="#263238"/>
<path d="M172.7 87.08C172.609 87.0819 172.519 87.0576 172.44 87.01C169.74 85.4 167.96 86.89 167.88 86.96C167.789 87.0509 167.665 87.102 167.535 87.102C167.406 87.102 167.282 87.0509 167.19 86.96C167.099 86.8665 167.047 86.7408 167.047 86.61C167.047 86.4791 167.099 86.3534 167.19 86.26C167.29 86.18 169.57 84.26 172.91 86.26C173 86.3175 173.068 86.4019 173.106 86.5011C173.144 86.6003 173.15 86.709 173.122 86.8115C173.094 86.914 173.035 87.005 172.951 87.0712C172.868 87.1375 172.766 87.1756 172.66 87.18L172.7 87.08Z" fill="#263238"/>
<path d="M173.7 85.41C173.608 85.412 173.518 85.3877 173.44 85.34C169.54 83.02 166.91 85.27 166.89 85.34C166.79 85.4084 166.668 85.4379 166.548 85.4232C166.427 85.4084 166.316 85.3503 166.235 85.2597C166.154 85.1691 166.109 85.0522 166.108 84.9308C166.107 84.8094 166.151 84.6919 166.23 84.6C166.23 84.6 169.43 81.86 173.95 84.54C174.006 84.573 174.056 84.6168 174.095 84.6691C174.134 84.7213 174.162 84.7809 174.178 84.8442C174.194 84.9076 174.197 84.9735 174.187 85.038C174.177 85.1025 174.154 85.1644 174.12 85.22C174.072 85.2844 174.008 85.3355 173.934 85.3687C173.861 85.4019 173.78 85.4161 173.7 85.41Z" fill="#263238"/>
<path d="M174.6 83.48C174.512 83.4806 174.425 83.4563 174.35 83.41C169.41 80.47 166.12 83.24 165.98 83.41C165.935 83.4566 165.88 83.4935 165.82 83.5188C165.76 83.544 165.696 83.5571 165.63 83.5571C165.565 83.5571 165.501 83.544 165.44 83.5188C165.38 83.4935 165.326 83.4566 165.28 83.41C165.237 83.362 165.204 83.3057 165.183 83.2446C165.162 83.1835 165.154 83.1188 165.158 83.0543C165.163 82.9899 165.181 82.9271 165.21 82.8696C165.24 82.8122 165.281 82.7613 165.33 82.72C165.33 82.72 169.27 79.34 174.86 82.66C174.972 82.7284 175.053 82.838 175.084 82.9652C175.116 83.0924 175.097 83.227 175.03 83.34C174.975 83.3961 174.907 83.4382 174.832 83.4626C174.758 83.4869 174.678 83.4929 174.6 83.48Z" fill="#263238"/>
<path d="M171.21 87.91C171.212 88.1593 171.139 88.4035 171.001 88.6111C170.863 88.8188 170.666 88.9804 170.436 89.0753C170.205 89.1702 169.951 89.1939 169.707 89.1435C169.463 89.093 169.239 88.9708 169.065 88.7923C168.891 88.6139 168.774 88.3874 168.73 88.1421C168.686 87.8967 168.715 87.6437 168.816 87.4155C168.916 87.1874 169.083 86.9944 169.294 86.8616C169.505 86.7287 169.751 86.662 170 86.67C170.324 86.6778 170.631 86.8119 170.857 87.0436C171.084 87.2753 171.21 87.5862 171.21 87.91Z" fill="#263238"/>
<path d="M121.53 217.66C143.53 218 161.86 226.34 176.31 243.02C176.775 243.525 177.133 244.119 177.362 244.766C177.591 245.413 177.686 246.1 177.642 246.785C177.598 247.47 177.416 248.14 177.106 248.752C176.796 249.365 176.366 249.908 175.84 250.35C175.332 250.786 174.741 251.115 174.103 251.319C173.465 251.522 172.792 251.595 172.126 251.533C171.459 251.472 170.811 251.277 170.221 250.96C169.631 250.644 169.11 250.212 168.69 249.69C163.534 243.597 157.266 238.54 150.22 234.79C139.386 229.034 127.071 226.666 114.874 227.995C102.678 229.323 91.1616 234.286 81.8202 242.24C79.2091 244.561 76.7318 247.028 74.4002 249.63C73.965 250.157 73.4296 250.592 72.825 250.911C72.2205 251.23 71.5586 251.426 70.8779 251.487C70.1972 251.549 69.511 251.474 68.8592 251.269C68.2073 251.063 67.6027 250.731 67.0802 250.29C66.5647 249.839 66.1453 249.289 65.847 248.672C65.5487 248.056 65.3776 247.385 65.344 246.701C65.3104 246.017 65.415 245.333 65.6514 244.691C65.8879 244.048 66.2513 243.459 66.7202 242.96C78.2859 229.22 94.6023 220.341 112.42 218.09C113.86 217.9 115.31 217.74 116.76 217.68C118.21 217.62 119.94 217.66 121.53 217.66Z" fill="#263238"/>
<path d="M123.35 238.05C137.25 238.41 150.35 244.34 160.59 256.22C161.062 256.718 161.425 257.309 161.659 257.954C161.892 258.599 161.991 259.285 161.947 259.97C161.904 260.655 161.721 261.323 161.408 261.934C161.095 262.545 160.66 263.085 160.13 263.52C159.618 263.965 159.02 264.301 158.373 264.507C157.727 264.714 157.045 264.786 156.37 264.721C155.694 264.655 155.039 264.453 154.444 264.126C153.85 263.799 153.328 263.355 152.91 262.82C147.776 256.606 140.869 252.106 133.11 249.92C117 245.56 103 249.54 91.3001 261.49C90.8601 261.94 90.4601 262.42 90.0501 262.88C89.6167 263.395 89.0852 263.819 88.4866 264.127C87.888 264.435 87.2342 264.621 86.5631 264.674C85.892 264.727 85.2171 264.646 84.5775 264.436C83.938 264.225 83.3466 263.89 82.8377 263.45C82.3288 263.009 81.9125 262.472 81.6131 261.869C81.3137 261.266 81.1371 260.609 81.0936 259.938C81.0501 259.266 81.1406 258.592 81.3597 257.956C81.5788 257.319 81.9223 256.733 82.3701 256.23C86.8907 250.868 92.4663 246.494 98.7501 243.38C105.94 239.81 113.57 238.08 123.35 238.05Z" fill="#263238"/>
<path d="M146.21 272.81C146.214 273.839 145.906 274.845 145.326 275.695C144.745 276.545 143.92 277.199 142.96 277.57C141.987 277.956 140.917 278.026 139.902 277.771C138.886 277.516 137.976 276.949 137.3 276.15C135.189 273.658 132.534 271.684 129.54 270.38C121.2 266.84 112 269 105.79 276C105.164 276.799 104.306 277.384 103.334 277.676C102.361 277.967 101.323 277.952 100.36 277.63C99.5622 277.38 98.8383 276.937 98.2531 276.34C97.6678 275.743 97.2393 275.011 97.0056 274.208C96.772 273.405 96.7406 272.557 96.9141 271.739C97.0876 270.921 97.4607 270.159 98.0002 269.52C100.87 266.069 104.465 263.293 108.531 261.391C112.596 259.488 117.031 258.506 121.519 258.513C126.007 258.521 130.439 259.519 134.497 261.435C138.556 263.351 142.142 266.139 145 269.6C145.623 270.566 146.126 271.603 146.5 272.69L146.21 272.81Z" fill="#263238"/>
<path d="M121.52 299.5C119.499 299.506 117.522 298.911 115.84 297.792C114.157 296.673 112.845 295.079 112.07 293.213C111.295 291.346 111.092 289.292 111.486 287.31C111.88 285.328 112.854 283.508 114.285 282.08C115.715 280.653 117.537 279.682 119.52 279.292C121.502 278.902 123.556 279.109 125.421 279.888C127.286 280.667 128.877 281.982 129.993 283.666C131.109 285.351 131.7 287.329 131.69 289.35C131.691 290.685 131.429 292.007 130.918 293.24C130.407 294.474 129.658 295.594 128.713 296.537C127.768 297.48 126.646 298.227 125.412 298.736C124.177 299.244 122.855 299.504 121.52 299.5Z" fill="#263238"/>
<path d="M121.58 182C107.197 181.998 93.1356 186.262 81.1753 194.251C69.215 202.241 59.8928 213.598 54.3875 226.887C48.8823 240.175 47.4413 254.797 50.2469 268.905C53.0525 283.012 59.9786 295.97 70.1493 306.141C80.32 316.311 93.2784 323.238 107.386 326.043C121.493 328.849 136.115 327.408 149.403 321.903C162.692 316.397 174.049 307.075 182.039 295.115C190.029 283.155 194.292 269.094 194.29 254.71C194.266 235.433 186.598 216.953 172.968 203.323C159.337 189.692 140.857 182.024 121.58 182ZM58.8601 254.75C58.8441 242.566 62.3797 230.641 69.0343 220.434C75.6888 210.228 85.1739 202.182 96.3292 197.281C107.484 192.381 119.826 190.838 131.845 192.841C143.863 194.844 155.037 200.306 164 208.56L75.3901 297.13C64.754 285.58 58.853 270.451 58.8601 254.75ZM121.58 317.47C107.472 317.478 93.7771 312.705 82.7301 303.93L170.73 215.93C178.043 225.167 182.604 236.279 183.89 247.99C185.176 259.701 183.135 271.538 178 282.142C172.866 292.746 164.846 301.687 154.862 307.941C144.877 314.195 133.332 317.508 121.55 317.5L121.58 317.47Z" fill="#F9F0A6"/>
<path d="M427.5 454.81H418.02L415.99 432.25H429.53L427.5 454.81Z" fill="#263238" stroke="#263238" stroke-miterlimit="10"/>
<path d="M466.98 454.81H457.5L455.47 432.25H469.01L466.98 454.81Z" fill="#263238" stroke="#263238" stroke-miterlimit="10"/>
<path d="M372.23 454.81H362.75L360.73 432.25H374.26L372.23 454.81Z" fill="#263238" stroke="#263238" stroke-miterlimit="10"/>
<path d="M329.93 454.81H320.46L318.43 432.25H331.96L329.93 454.81Z" fill="#263238" stroke="#263238" stroke-miterlimit="10"/>
<path d="M375.17 286.9H473.69C473.69 286.9 474.08 321.15 469.01 345.4C463.94 369.65 457.73 384.31 457.73 384.31H364.11C364.11 384.31 378 330.67 375.17 286.9Z" fill="white" stroke="#263238" stroke-miterlimit="10"/>
<path d="M416.06 292.13C407.42 291.45 403.99 289.71 397.53 286.13C389.12 281.52 387.32 284.59 387.92 289.2C388.52 293.81 379.75 324.2 377.92 339.5C376.09 354.8 376.71 363.03 376.71 363.03C376.71 363.03 371.31 367.64 374.91 369.17C377.225 370.131 379.645 370.819 382.12 371.22H451.78C451.78 371.22 464.16 307.61 465.36 297.38C466.56 287.15 461.16 286.13 458.15 287.66C455.14 289.19 454.55 290.22 450.34 290.73C440.5 292 427.9 293.05 416.06 292.13Z" fill="#F9F0A6"/>
<path d="M393.63 293.16C395.432 291.138 396.7 288.697 397.32 286.06C396.48 285.61 395.71 285.24 395 284.94C394.538 287.4 393.41 289.686 391.74 291.55C390.493 293.065 388.948 294.308 387.2 295.2C387.02 296.11 386.82 297.1 386.6 298.2C389.36 297.195 391.792 295.451 393.63 293.16Z" fill="white"/>
<path d="M456 313.06C451.59 318.24 451.76 322.84 451.92 327.3C452.08 331.46 452.22 335.38 448.44 339.83C444.66 344.28 440.75 344.75 436.62 345.27C432.2 345.81 427.62 346.38 423.22 351.56C418.82 356.74 418.97 361.34 419.14 365.79C419.265 367.614 419.215 369.446 418.99 371.26H421.51C421.701 369.413 421.738 367.553 421.62 365.7C421.47 361.54 421.32 357.61 425.11 353.17C428.9 348.73 432.79 348.24 436.93 347.73C441.35 347.19 445.93 346.62 450.33 341.44C454.73 336.26 454.57 331.66 454.41 327.2C454.25 323.04 454.11 319.11 457.9 314.67C459.332 312.926 461.164 311.553 463.24 310.67C463.41 309.67 463.58 308.75 463.74 307.84C460.7 308.776 458.007 310.592 456 313.06Z" fill="white"/>
<path d="M385.23 370.14C389.66 369.59 394.23 369.02 398.64 363.84C403.05 358.66 402.88 354.06 402.72 349.61C402.56 345.45 402.42 341.52 406.2 337.08C409.98 332.64 413.89 332.15 418.02 331.64C422.44 331.09 427.02 330.53 431.42 325.35C435.82 320.17 435.67 315.56 435.5 311.11C435.35 306.95 435.2 303.02 438.99 298.58C442.78 294.14 446.68 293.65 450.81 293.14C454.94 292.63 459.07 292.14 463.15 288C462.36 287.411 461.394 287.108 460.41 287.14C458.149 288.986 455.394 290.124 452.49 290.41C451.79 290.569 451.083 290.689 450.37 290.77L447.37 291.12C443.331 291.724 439.666 293.823 437.1 297C432.68 302.19 432.85 306.79 433.02 311.24C433.17 315.4 433.32 319.33 429.53 323.78C425.74 328.23 421.85 328.7 417.71 329.21C413.29 329.76 408.71 330.32 404.31 335.5C399.91 340.68 400.07 345.29 400.23 349.74C400.39 353.9 400.53 357.83 396.75 362.27C392.97 366.71 389.06 367.2 384.93 367.71C382.026 367.898 379.183 368.631 376.55 369.87C377.858 370.328 379.194 370.702 380.55 370.99C382.087 370.591 383.651 370.307 385.23 370.14Z" fill="white"/>
<path d="M379.74 347.75C384.15 342.57 383.98 337.97 383.82 333.52C383.67 329.35 383.52 325.43 387.31 320.98C391.1 316.53 394.99 316.06 399.12 315.55C403.54 315 408.12 314.43 412.53 309.25C416.94 304.07 416.77 299.47 416.61 295.02C416.61 294.02 416.54 293.11 416.55 292.16H416.06L414.06 291.97C414.06 293.04 414.06 294.09 414.11 295.14C414.27 299.3 414.41 303.23 410.63 307.67C406.85 312.11 402.94 312.6 398.81 313.11C394.39 313.66 389.81 314.22 385.4 319.4C380.99 324.58 381.16 329.18 381.33 333.64C381.48 337.8 381.62 341.73 377.84 346.17C377.63 346.42 377.42 346.65 377.2 346.87C377.1 348.14 377.01 349.34 376.94 350.46C377.967 349.659 378.906 348.751 379.74 347.75Z" fill="white"/>
<path d="M416.06 292.13C407.42 291.45 403.99 289.71 397.53 286.13C389.12 281.52 387.32 284.59 387.92 289.2C388.52 293.81 379.75 324.2 377.92 339.5C376.09 354.8 376.71 363.03 376.71 363.03C376.71 363.03 371.31 367.64 374.91 369.17C377.225 370.131 379.645 370.819 382.12 371.22H451.78C451.78 371.22 464.16 307.61 465.36 297.38C466.56 287.15 461.16 286.13 458.15 287.66C455.14 289.19 454.55 290.22 450.34 290.73C440.5 292 427.9 293.05 416.06 292.13Z" stroke="#263238" stroke-miterlimit="10"/>
<path d="M375.17 286.9H369.6C368.589 286.9 367.608 287.24 366.815 287.866C366.022 288.492 365.464 289.367 365.23 290.35L358.31 319.35C357.03 324.73 352.65 340.23 347.83 342.94C344.87 344.6 341.533 345.471 338.14 345.47H317.26L326.14 436.24H364.14L374.14 291.71C374.172 291.377 374.172 291.043 374.14 290.71H375.27L375.17 286.9Z" fill="white" stroke="#263238" stroke-miterlimit="10"/>
<path d="M322.83 345.46H343.72C347.113 345.46 350.45 344.589 353.41 342.93C358.23 340.22 362.6 324.72 363.89 319.34L370.8 290.34C371.036 289.358 371.595 288.484 372.387 287.858C373.18 287.232 374.16 286.891 375.17 286.89C375.786 286.89 376.395 287.016 376.96 287.262C377.525 287.507 378.033 287.866 378.453 288.316C378.873 288.767 379.197 289.298 379.402 289.879C379.608 290.459 379.693 291.076 379.65 291.69L369.4 436.23H331.4L322.83 345.46Z" fill="white" stroke="#263238" stroke-miterlimit="10"/>
<path d="M412.04 436.28L414.21 371.26L327.1 370.49L329.28 436.28H412.04Z" fill="white" stroke="#263238" stroke-miterlimit="10"/>
<path d="M479.26 286.9H473.69C472.68 286.901 471.7 287.242 470.907 287.868C470.115 288.494 469.555 289.368 469.32 290.35L462.4 319.35C461.12 324.73 456.75 340.23 451.92 342.94C448.961 344.601 445.624 345.473 442.23 345.47H421.35L425 436.23H467.82L478.17 291.7C478.208 291.368 478.208 291.032 478.17 290.7H479.3L479.26 286.9Z" fill="white" stroke="#263238" stroke-miterlimit="10"/>
<path d="M426.92 345.46H447.81C451.203 345.46 454.54 344.589 457.5 342.93C462.32 340.22 466.7 324.72 467.98 319.34L474.9 290.34C475.134 289.359 475.691 288.485 476.482 287.859C477.273 287.233 478.251 286.892 479.26 286.89C479.876 286.888 480.486 287.014 481.052 287.259C481.617 287.504 482.126 287.863 482.546 288.313C482.967 288.764 483.29 289.296 483.495 289.877C483.701 290.458 483.784 291.075 483.74 291.69L473.58 434C473.535 434.599 473.266 435.159 472.827 435.568C472.388 435.977 471.81 436.207 471.21 436.21H430.33L426.92 345.46Z" fill="white" stroke="#263238" stroke-miterlimit="10"/>
<path d="M414.21 352L412 436.28H430.29L433.47 352C433.47 351.14 433.301 350.289 432.971 349.495C432.642 348.701 432.159 347.979 431.551 347.372C430.943 346.765 430.22 346.283 429.426 345.955C428.631 345.627 427.78 345.459 426.92 345.46H420.76C419.9 345.459 419.049 345.627 418.254 345.955C417.46 346.283 416.737 346.765 416.129 347.372C415.521 347.979 415.038 348.701 414.709 349.495C414.379 350.289 414.21 351.14 414.21 352Z" fill="white" stroke="#263238" stroke-miterlimit="10"/>
<path d="M307.94 352L311.08 436.28H329.37L327.19 352C327.19 350.265 326.501 348.602 325.274 347.375C324.048 346.149 322.384 345.46 320.65 345.46H314.49C313.63 345.459 312.779 345.627 311.984 345.955C311.19 346.283 310.467 346.765 309.859 347.372C309.251 347.979 308.768 348.701 308.439 349.495C308.109 350.289 307.94 351.14 307.94 352Z" fill="white" stroke="#263238" stroke-miterlimit="10"/>
<path d="M327.54 399.23H413.38" stroke="#263238" stroke-miterlimit="10"/>
<path d="M285.55 287.23C285.55 287.23 277.61 331.35 275.87 338.81C274.13 346.27 269.87 384.3 269.87 393.75C269.87 403.2 270.61 431.75 270.61 431.75C270.61 431.75 267.38 433.24 267.38 434.48C267.38 435.72 269.87 443.68 269.87 443.68L284.53 449.15C284.53 449.15 287.53 442.15 287.76 439.7C287.99 437.25 286.02 436.22 286.02 431.99C286.02 427.76 293.48 378.55 295.72 370.35C297.96 362.15 304.42 337.54 305.66 335.3C306.9 333.06 313.12 316.66 313.12 316.66L316.6 318.4C316.6 318.4 318.83 370.1 320.08 373.33C321.33 376.56 338 429.2 338 429.2C338 429.2 335.27 430.44 337 433.43C338.73 436.42 341.72 443.12 341.72 443.12C341.72 443.12 344.46 439.39 347.72 438.65C350.98 437.91 356.42 441.13 356.42 441.13C356.42 441.13 359.65 433.67 358.9 430.2C358.15 426.73 354.9 420.75 354.68 419.01C354.46 417.27 347.68 367.15 347.68 367.15C347.68 367.15 349.42 297.05 349.42 292.33C349.327 289.11 348.74 285.922 347.68 282.88C337.251 286.459 326.372 288.552 315.36 289.1C297.71 289.84 288.02 282.64 288.02 282.64L285.55 287.23Z" fill="#263238" stroke="#263238" stroke-miterlimit="10"/>
<path d="M269.91 443.71C269.91 443.71 261.7 451.16 260.21 452.16C258.72 453.16 248.28 457.16 248.53 459.16C248.78 461.16 251.53 462.39 251.53 462.39H285.34C285.34 462.39 285.58 461.39 286.08 456.67C286.319 453.61 285.807 450.538 284.59 447.72L269.91 443.71Z" fill="white" stroke="#263238" stroke-miterlimit="10"/>
<path d="M285.83 458.76L248.71 459.76C249.349 460.89 250.329 461.79 251.51 462.33H285.32C285.32 462.33 285.49 461.66 285.83 458.76Z" fill="white" stroke="#263238" stroke-miterlimit="10"/>
<path d="M341.74 443.12C341.74 443.12 341.49 449.33 341.49 452.57C341.49 455.81 341 459.57 341.24 460.27C341.48 460.97 341.99 462.27 341.99 462.27H361.63C361.63 462.27 362.37 460.27 361.38 456.55C360.39 452.83 358.64 450.84 358.15 447.55C357.77 445.348 357.188 443.185 356.41 441.09C356.41 441.09 346.71 433.43 341.74 443.12Z" fill="white" stroke="#263238" stroke-miterlimit="10"/>
<path d="M361.89 459.91C354.42 459.91 345.12 459.67 341.17 459.57C341.169 459.805 341.192 460.04 341.24 460.27C341.49 461.02 341.99 462.27 341.99 462.27H361.63C361.846 461.503 361.934 460.706 361.89 459.91Z" fill="white" stroke="#263238" stroke-miterlimit="10"/>
<path d="M278.5 193.64C278.5 193.64 257.38 213.47 258.3 215.32C259.22 217.17 265 232.18 265 232.18C265 232.18 266.66 242.18 265.74 248.49C265.177 252.48 264.99 256.515 265.18 260.54C267.121 262.987 269.493 265.058 272.18 266.65C276.26 268.88 279.41 272.77 282.01 266.47C284.61 260.17 283.49 248.86 283.49 248.86C283.49 248.86 287 262.58 287.59 265C288.18 267.42 285.59 287.24 285.59 287.24C285.59 287.24 298.33 298 320 295.56C341.67 293.12 348.54 285.56 348.54 285.56C348.54 285.56 346.31 261.28 346.31 258.5C346.289 256.578 346.165 254.659 345.94 252.75C345.94 252.75 353.54 260.54 357.25 260.17C360.96 259.8 367.44 244.6 365.77 242.17C364.1 239.74 358.36 229.92 354.84 222.88C352.718 218.637 350.952 214.225 349.56 209.69C349.56 209.69 343.44 188.93 341.56 187.45C339.68 185.97 318.86 186.2 315.15 185.28C310.251 184.316 305.299 183.648 300.32 183.28C299.08 183.26 282.58 187.15 278.5 193.64Z" fill="#F9F0A6" stroke="#263238" stroke-miterlimit="10"/>
<path d="M340.8 221.39C340.7 216.07 340.68 211.93 340.68 211.93" stroke="#263238" stroke-miterlimit="10"/>
<path d="M346 252.75C344.585 249.866 343.349 246.897 342.3 243.86C341.56 241.65 341.17 233.76 340.96 226.37" stroke="#263238" stroke-miterlimit="10"/>
<path d="M272.93 230.8C271.04 227.5 269.6 224.92 269.42 224.4" stroke="#263238" stroke-miterlimit="10"/>
<path d="M283.51 248.86C283.51 248.86 278.77 240.86 274.79 234.02" stroke="#263238" stroke-miterlimit="10"/>
<path d="M307.6 185.85C308.364 192.374 308.427 198.962 307.79 205.5" stroke="#263238" stroke-miterlimit="10"/>
<path d="M320.07 277.32C322.3 277.77 324.69 278.18 327.24 278.51" stroke="#263238" stroke-miterlimit="10"/>
<path d="M293.14 265.36C293.14 265.36 299.14 271.94 315.14 276.16" stroke="#263238" stroke-miterlimit="10"/>
<path d="M309.45 279.44C316.321 282.524 323.791 284.043 331.32 283.89" stroke="#263238" stroke-miterlimit="10"/>
<path d="M265.16 163.61C265.16 163.61 267.38 173.99 267.57 176.22C267.76 178.45 268.31 181.41 271.09 185.85C273.87 190.29 281.09 200.12 282.58 200.68C284.07 201.24 289.81 199.75 289.81 199.75C289.81 199.75 295.92 211.8 297.59 211.43C299.26 211.06 303.52 197.34 304.08 191.78C304.433 189.014 304.494 186.219 304.26 183.44L301.67 174.18C301.67 174.18 299.45 161.18 299.45 160.28C299.45 159.38 300.74 152.68 293.52 149.9C286.3 147.12 277.39 146.9 271.46 153.79C265.53 160.68 265.16 163.61 265.16 163.61Z" fill="white" stroke="#263238" stroke-miterlimit="10"/>
<path d="M285 151.94C282.4 155.885 278.992 159.233 275 161.76C268.15 166.21 271.48 161.39 271.48 161.39C271.48 161.39 266.66 164.39 262.77 166.39C258.88 168.39 260.36 168.99 258.88 168.39C257.4 167.79 251.88 152.01 264.27 144.39C276.66 136.77 285.7 138.78 285.7 138.78C285.7 138.78 280.32 136.37 285.14 136.37C289.96 136.37 292 139 292 139C292 139 294.59 138.26 295.7 139.74C296.186 140.269 296.793 140.67 297.47 140.91C303.47 143.45 305.56 149.13 306.69 155.06C307.43 158.95 304.28 168.22 304.28 168.22L299.08 171C297.82 169.852 296.8 168.465 296.08 166.92C295.606 165.422 295.357 163.861 295.34 162.29C295.34 162.29 292.19 166.36 291.63 163.4C291.07 160.44 289.63 152.84 289.63 152.84C289.63 152.84 290.19 155.84 288.34 155.84C286.49 155.84 285 151.94 285 151.94Z" fill="#263238" stroke="#263238" stroke-miterlimit="10"/>
<path d="M298.7 172.32C298.7 172.32 298.52 166.02 302.23 163.98C305.94 161.94 308.53 164.17 307.41 170.1C306.29 176.03 299.63 178.25 299.63 178.25" fill="white"/>
<path d="M298.7 172.32C298.7 172.32 298.52 166.02 302.23 163.98C305.94 161.94 308.53 164.17 307.41 170.1C306.29 176.03 299.63 178.25 299.63 178.25" stroke="#263238" stroke-miterlimit="10"/>
<path d="M289.81 199.75L299.63 189.93L293.14 204.94L289.81 199.75Z" fill="#263238" stroke="#263238" stroke-miterlimit="10"/>
<path d="M285.27 189.82C285.478 190.183 285.541 190.612 285.447 191.02C285.352 191.428 285.107 191.785 284.76 192.02C284.09 192.29 283.24 191.74 282.86 190.79C282.48 189.84 282.71 188.85 283.37 188.58C284.03 188.31 284.88 188.87 285.27 189.82Z" fill="#263238"/>
<path d="M287.83 172.66C288.19 173.84 287.93 174.96 287.26 175.17C286.59 175.38 285.73 174.59 285.37 173.42C285.01 172.25 285.27 171.13 285.94 170.92C286.61 170.71 287.47 171.49 287.83 172.66Z" fill="#263238"/>
<path d="M275.66 174.72C276.02 175.9 275.76 177.02 275.08 177.23C274.4 177.44 273.56 176.66 273.2 175.48C272.84 174.3 273.09 173.19 273.77 172.98C274.45 172.77 275.29 173.55 275.66 174.72Z" fill="#263238"/>
<path d="M276.1 170.1C276.922 170.772 277.582 171.621 278.03 172.584C278.479 173.547 278.704 174.598 278.69 175.66C278.69 179.37 278.13 184.93 278.13 184.93L284.81 184" stroke="#263238" stroke-miterlimit="10"/>
<path d="M280.54 167.69C280.54 167.69 283.88 161.76 289.07 162.87" stroke="#263238" stroke-miterlimit="10"/>
<path d="M274.61 168.8C274.61 168.8 270.54 167.51 267.76 169.17" stroke="#263238" stroke-miterlimit="10"/>
<path d="M388 216.43C388 216.43 392.08 214.95 393.56 214.43C395.04 213.91 396.56 214.8 399.12 213.51C401.68 212.22 404.68 209.61 404.87 211.51C405.06 213.41 404.12 214.1 402.64 215.03C401.16 215.96 398.75 217.81 398.75 217.81L398.01 219.66L386.89 218.74C386.89 218.74 387.1 217 388 216.43Z" fill="white" stroke="#263238" stroke-miterlimit="10"/>
<path d="M410.35 221.22C410.35 221.22 415.46 217.17 416.2 215.32C416.94 213.47 415.64 213.32 414.35 214.02C413.06 214.72 409 218.1 409 218.1L410.35 221.22Z" fill="white" stroke="#263238" stroke-miterlimit="10"/>
<path d="M406.17 222.1C406.17 222.1 409.97 222.5 410.35 221.22C410.73 219.94 413.73 211.88 413.24 210.87C412.75 209.86 411.8 209.95 410.75 211.62C409.627 213.909 408.658 216.271 407.85 218.69C407.85 218.69 405.31 219.26 404.67 221C404.03 222.74 406.17 222.1 406.17 222.1Z" fill="white" stroke="#263238" stroke-miterlimit="10"/>
<path d="M401.37 223.1C401.37 223.1 404.9 224.59 405.64 223.47C406.38 222.35 411.57 215.47 411.38 214.39C411.19 213.31 410.27 213.1 408.79 214.39C407.05 216.254 405.439 218.236 403.97 220.32C403.97 220.32 401.37 220.14 400.26 221.62C399.15 223.1 401.37 223.1 401.37 223.1Z" fill="white" stroke="#263238" stroke-miterlimit="10"/>
<path d="M349.67 253.5C351.134 247.571 354.86 242.449 360.05 239.23C368.94 233.48 381 223.1 381 223.1C381 223.1 385.08 217.36 388 216.43C390.92 215.5 400.6 218.28 400.6 218.28C400.6 218.28 408.39 210.5 408.6 212.17C408.81 213.84 404.9 219.77 403.04 221.99C401.18 224.21 395.44 224.77 394.15 224.77C391.855 224.839 389.566 225.026 387.29 225.33C386.55 225.51 374.29 242.19 368.76 250.33C363.23 258.47 360.76 259.96 357.27 260.15C353.78 260.34 350.04 257.55 349.11 256.26C348.18 254.97 349.67 253.5 349.67 253.5Z" fill="white" stroke="#263238" stroke-miterlimit="10"/>
<path d="M233.77 222.82L245.45 248.16C245.63 248.521 245.922 248.814 246.283 248.994C246.644 249.174 247.053 249.233 247.45 249.16L257.14 247.37C257.409 247.318 257.663 247.207 257.884 247.045C258.105 246.883 258.287 246.673 258.417 246.432C258.547 246.191 258.622 245.924 258.636 245.65C258.651 245.377 258.604 245.103 258.5 244.85L248 220.12C247.848 219.755 247.582 219.449 247.241 219.249C246.9 219.048 246.503 218.965 246.11 219.01L235.22 220.22C234.932 220.255 234.656 220.357 234.415 220.519C234.173 220.681 233.974 220.897 233.833 221.151C233.691 221.404 233.612 221.688 233.601 221.978C233.59 222.268 233.648 222.557 233.77 222.82Z" fill="#263238" stroke="#263238" stroke-miterlimit="10"/>
<path d="M241.44 244.51C241.44 244.51 237.25 238.09 237.25 236.65C237.25 235.21 239.69 231.8 241.12 228.72C242.55 225.64 242.77 223.58 244 224C245.23 224.42 245 225.64 244.61 227.69C243.858 230.334 242.97 232.937 241.95 235.49L242.36 237.96C243.351 235.962 244.59 234.097 246.05 232.41C247.9 230.57 249.95 227.49 251.39 228.1C252.83 228.71 253.44 229.1 252.21 230.57C250.666 232.42 249.281 234.397 248.07 236.48C246.984 238.258 246.051 240.124 245.28 242.06C246.654 240.744 248.113 239.521 249.65 238.4C251.65 236.96 254.47 234.88 255.65 235.7C256.83 236.52 257.09 237.34 255.86 238.37C254.63 239.4 253.51 240.1 251.86 241.54C250.139 243.258 248.523 245.078 247.02 246.99C248.486 245.858 250.119 244.96 251.86 244.33C255.35 242.9 258.54 243.06 258.67 244.16C258.8 245.26 255 246.26 255 246.26C252.28 246.88 252.15 247.81 252.15 247.81C252.15 247.81 254.41 252.33 254 253.81C254 253.81 263.12 252.38 266.61 251.36C270.1 250.34 275.55 252.36 277.2 254.01C280.69 257.5 282.33 262.84 280.49 267.36C278.65 271.88 278.64 270.44 264.06 266.36C249.48 262.28 249.76 260.82 246.2 254.86C244.91 252.54 241.44 244.51 241.44 244.51Z" fill="white" stroke="#263238" stroke-miterlimit="10"/>
<path d="M254.06 253.77L253.75 257.53" stroke="#263238" stroke-miterlimit="10"/>
</svg>
